<svg width="96" height="95" viewBox="0 0 96 95" fill="none" xmlns="http://www.w3.org/2000/svg">
<rect x="0.5" width="95" height="95" rx="47.5" fill="#E9EFF7"/>
<g clip-path="url(#clip0_459_1920)">
<g clip-path="url(#clip1_459_1920)">
<g clip-path="url(#clip2_459_1920)">
<mask id="mask0_459_1920" style="mask-type:luminance" maskUnits="userSpaceOnUse" x="18" y="17" width="60" height="61">
<path d="M78 17.5H18V77.5H78V17.5Z" fill="white"/>
</mask>
<g mask="url(#mask0_459_1920)">
<path d="M69.0009 54.7599V40.1799C70.9809 39.7599 72.5409 38.0199 72.5409 35.9199C72.5409 33.5199 70.5609 31.5399 68.1609 31.5399C66.9009 31.5399 65.7609 32.0799 64.9209 32.9799L52.1409 25.6599C52.2609 25.2399 52.3809 24.7599 52.3809 24.2799C52.3809 21.8199 50.4009 19.8999 48.0009 19.8999C45.6009 19.8999 43.6209 21.8799 43.6209 24.2799C43.6209 24.7599 43.7409 25.2399 43.8609 25.6599L31.0809 33.0399C30.3009 32.1399 29.1609 31.5999 27.8409 31.5999C25.4409 31.5999 23.4609 33.5799 23.4609 35.9799C23.4609 38.0799 24.9609 39.8799 26.9409 40.2399V54.8199C24.9609 55.2399 23.4609 56.9799 23.4609 59.0799C23.4609 61.4799 25.4409 63.4599 27.8409 63.4599C29.1009 63.4599 30.2409 62.9199 31.0809 62.0199L43.9209 69.3999C43.8009 69.8199 43.6809 70.2999 43.6809 70.7799C43.6809 73.1799 45.6609 75.1599 48.0609 75.1599C50.4609 75.1599 52.4409 73.1799 52.4409 70.7799C52.4409 70.2999 52.3209 69.8199 52.2009 69.3999L65.0409 62.0199C65.8209 62.9199 66.9609 63.4599 68.2809 63.4599C70.6809 63.4599 72.6609 61.4799 72.6609 59.0799C72.4809 56.9199 70.9809 55.1799 69.0009 54.7599ZM68.1609 33.2799C69.6009 33.2799 70.8009 34.4799 70.8009 35.9199C70.8009 37.3599 69.6009 38.5599 68.1609 38.5599C66.7209 38.5599 65.5209 37.3599 65.5209 35.9199C65.4609 34.4799 66.6609 33.2799 68.1609 33.2799ZM48.0009 21.5799C49.4409 21.5799 50.6409 22.7799 50.6409 24.2199C50.6409 25.6599 49.4409 26.8599 48.0009 26.8599C46.5609 26.8599 45.3609 25.6599 45.3609 24.2199C45.3609 22.7799 46.5609 21.5799 48.0009 21.5799ZM25.2009 35.9199C25.2009 34.4799 26.4009 33.2799 27.8409 33.2799C29.2809 33.2799 30.4809 34.4799 30.4809 35.9199C30.4809 37.3599 29.2809 38.5599 27.8409 38.5599C26.4009 38.6199 25.2009 37.4199 25.2009 35.9199ZM27.8409 61.7199C26.4009 61.7199 25.2009 60.5199 25.2009 59.0799C25.2009 57.6399 26.4009 56.4399 27.8409 56.4399C29.2809 56.4399 30.4809 57.6399 30.4809 59.0799C30.5409 60.5199 29.3409 61.7199 27.8409 61.7199ZM48.0009 73.4199C46.5609 73.4199 45.3609 72.2199 45.3609 70.7799C45.3609 69.3399 46.5609 68.1399 48.0009 68.1399C49.4409 68.1399 50.6409 69.3399 50.6409 70.7799C50.6409 72.2199 49.4409 73.4199 48.0009 73.4199ZM51.2409 67.8999C50.6409 67.1799 49.8009 66.6999 48.8409 66.4599V61.6599H47.1609V66.4599C46.2009 66.6399 45.3609 67.1799 44.7609 67.8399L31.9209 60.5199C32.1009 60.0399 32.2209 59.5599 32.2209 59.0799C32.2209 58.5999 32.1009 58.1799 31.9809 57.7599L35.4009 55.7799L34.5609 54.2799L31.1409 56.2599C30.5409 55.5399 29.6409 54.9999 28.6809 54.8199V40.1799C29.6409 39.9999 30.4809 39.4599 31.1409 38.7399L35.2809 41.1399L36.1209 39.6399L31.9809 37.2399C32.1009 36.8199 32.2209 36.3399 32.2209 35.9199C32.2209 35.4399 32.1009 34.9599 31.9809 34.4799L44.7609 27.0999C45.3609 27.8199 46.2009 28.2999 47.1609 28.5399V33.2799H48.8409V28.5399C49.8009 28.3599 50.6409 27.8199 51.2409 27.1599L64.0209 34.5399C63.8409 35.0199 63.7809 35.4999 63.7809 35.9799C63.7809 36.4599 63.9009 36.8799 64.0209 37.2999L60.3609 39.3999L61.2009 40.8999L64.8609 38.7999C65.4609 39.5199 66.3009 40.0599 67.3209 40.2399V54.8199C66.3609 54.9999 65.4609 55.5399 64.8609 56.2599L61.2609 54.1599L60.4209 55.6599L64.0809 57.7599C63.9609 58.1799 63.8409 58.5999 63.8409 59.0799C63.8409 59.6199 63.9609 60.0999 64.1409 60.5199L51.2409 67.8999ZM68.1609 61.7199C66.7209 61.7199 65.5209 60.5199 65.5209 59.0799C65.5209 57.6399 66.7209 56.4399 68.1609 56.4399C69.6009 56.4399 70.8009 57.6399 70.8009 59.0799C70.8009 60.5199 69.6009 61.7199 68.1609 61.7199Z" fill="#3B4146"/>
<path d="M59.1008 45.1598L56.4008 44.2598L56.2208 43.8998L57.4808 41.3198C57.6608 41.0198 57.6008 40.5998 57.3008 40.3598L55.0808 38.1398C54.8408 37.8998 54.4208 37.8398 54.1208 37.9598L51.6008 39.2798L51.2408 39.0998L50.3408 36.3998C50.2208 36.0398 49.9208 35.7998 49.5608 35.7998H46.4408C46.0808 35.7998 45.7808 36.0398 45.6608 36.3998L44.7608 39.0998L44.4008 39.2798L41.8208 38.0198C41.5208 37.8398 41.1008 37.8998 40.8608 38.1998L38.6408 40.4198C38.4008 40.6598 38.3408 41.0798 38.4608 41.3798L39.7208 43.9598L39.6008 44.2598L36.9008 45.1598C36.5408 45.2798 36.3008 45.5798 36.3008 45.9398V49.0598C36.3008 49.4198 36.5408 49.7798 36.9008 49.8398L39.6008 50.7398L39.7208 51.0998L38.4608 53.6798C38.2808 53.9798 38.3408 54.3998 38.6408 54.6398L40.8608 56.8598C41.1008 57.0998 41.5208 57.1598 41.8208 57.0398L44.4008 55.7798L44.7608 55.8998L45.6608 58.5998C45.7808 58.9598 46.0808 59.1998 46.4408 59.1998H49.5608C49.9208 59.1998 50.2208 58.9598 50.3408 58.5998L51.2408 55.8998L51.6008 55.7798L54.1808 57.0398C54.4808 57.2198 54.9008 57.1598 55.1408 56.8598L57.3608 54.6398C57.6008 54.3998 57.6608 53.9798 57.5408 53.6798L56.2208 51.0998L56.3408 50.7398L59.0408 49.8398C59.4008 49.7198 59.6408 49.4198 59.6408 49.0598V45.9398C59.6408 45.5798 59.4608 45.2798 59.1008 45.1598ZM57.9608 48.4598L55.5008 49.2998C55.2608 49.3598 55.0808 49.5398 54.9608 49.7798L54.5408 50.8598C54.4208 51.0998 54.4808 51.3398 54.5408 51.5798L55.7408 53.9198L54.4208 55.2398L52.0808 54.0398C51.8408 53.9198 51.6008 53.9198 51.3608 54.0398L50.2808 54.4598C50.0408 54.5798 49.8608 54.7598 49.8008 54.9998L48.9608 57.5198H47.1008L46.2008 54.9998C46.1408 54.7598 45.9608 54.5798 45.7208 54.4598L44.6408 54.0398C44.4008 53.9198 44.1608 53.9798 43.9208 54.0398L41.5808 55.2398L40.2608 53.9198L41.4608 51.5798C41.5808 51.3398 41.5808 51.0998 41.4608 50.8598L41.0408 49.7798C40.9208 49.5398 40.7408 49.3598 40.5008 49.2998L37.9808 48.4598V46.5998L40.5008 45.7598C40.7408 45.6998 40.9208 45.5198 41.0408 45.2798L41.4608 44.1998C41.5808 43.9598 41.5208 43.7198 41.4608 43.4798L40.2608 41.1398L41.5808 39.8198L43.9208 41.0198C44.1608 41.1398 44.4008 41.1398 44.6408 41.0198L45.7208 40.5998C45.9608 40.4798 46.1408 40.2998 46.2008 40.0598L47.0408 37.5398H48.9008L49.7408 40.0598C49.8008 40.2998 49.9808 40.4798 50.2208 40.5998L51.3008 41.0198C51.5408 41.1398 51.7808 41.0798 52.0208 41.0198L54.3608 39.8198L55.6808 41.1398L54.4808 43.4798C54.3608 43.7198 54.3608 43.9598 54.4808 44.1998L54.9008 45.2798C55.0208 45.5198 55.2008 45.6998 55.4408 45.7598L57.9608 46.5998V48.4598Z" fill="#3B4146"/>
<path d="M48 43C45.54 43 43.5 45.04 43.5 47.5C43.5 49.96 45.54 52 48 52C50.46 52 52.5 49.96 52.5 47.5C52.5 45.04 50.46 43 48 43ZM48 50.32C46.44 50.32 45.18 49.06 45.18 47.5C45.18 45.94 46.44 44.68 48 44.68C49.56 44.68 50.82 45.94 50.82 47.5C50.82 49.06 49.56 50.32 48 50.32Z" fill="#3B4146"/>
</g>
</g>
</g>
</g>
<rect x="0.5" width="95" height="95" rx="47.5" fill="#E9EFF7"/>
<g clip-path="url(#clip3_459_1920)">
<g clip-path="url(#clip4_459_1920)">
<g clip-path="url(#clip5_459_1920)">
<mask id="mask1_459_1920" style="mask-type:luminance" maskUnits="userSpaceOnUse" x="18" y="17" width="60" height="61">
<path d="M78 17.5H18V77.5H78V17.5Z" fill="white"/>
</mask>
<g mask="url(#mask1_459_1920)">
<path d="M69.0009 54.7599V40.1799C70.9809 39.7599 72.5409 38.0199 72.5409 35.9199C72.5409 33.5199 70.5609 31.5399 68.1609 31.5399C66.9009 31.5399 65.7609 32.0799 64.9209 32.9799L52.1409 25.6599C52.2609 25.2399 52.3809 24.7599 52.3809 24.2799C52.3809 21.8199 50.4009 19.8999 48.0009 19.8999C45.6009 19.8999 43.6209 21.8799 43.6209 24.2799C43.6209 24.7599 43.7409 25.2399 43.8609 25.6599L31.0809 33.0399C30.3009 32.1399 29.1609 31.5999 27.8409 31.5999C25.4409 31.5999 23.4609 33.5799 23.4609 35.9799C23.4609 38.0799 24.9609 39.8799 26.9409 40.2399V54.8199C24.9609 55.2399 23.4609 56.9799 23.4609 59.0799C23.4609 61.4799 25.4409 63.4599 27.8409 63.4599C29.1009 63.4599 30.2409 62.9199 31.0809 62.0199L43.9209 69.3999C43.8009 69.8199 43.6809 70.2999 43.6809 70.7799C43.6809 73.1799 45.6609 75.1599 48.0609 75.1599C50.4609 75.1599 52.4409 73.1799 52.4409 70.7799C52.4409 70.2999 52.3209 69.8199 52.2009 69.3999L65.0409 62.0199C65.8209 62.9199 66.9609 63.4599 68.2809 63.4599C70.6809 63.4599 72.6609 61.4799 72.6609 59.0799C72.4809 56.9199 70.9809 55.1799 69.0009 54.7599ZM68.1609 33.2799C69.6009 33.2799 70.8009 34.4799 70.8009 35.9199C70.8009 37.3599 69.6009 38.5599 68.1609 38.5599C66.7209 38.5599 65.5209 37.3599 65.5209 35.9199C65.4609 34.4799 66.6609 33.2799 68.1609 33.2799ZM48.0009 21.5799C49.4409 21.5799 50.6409 22.7799 50.6409 24.2199C50.6409 25.6599 49.4409 26.8599 48.0009 26.8599C46.5609 26.8599 45.3609 25.6599 45.3609 24.2199C45.3609 22.7799 46.5609 21.5799 48.0009 21.5799ZM25.2009 35.9199C25.2009 34.4799 26.4009 33.2799 27.8409 33.2799C29.2809 33.2799 30.4809 34.4799 30.4809 35.9199C30.4809 37.3599 29.2809 38.5599 27.8409 38.5599C26.4009 38.6199 25.2009 37.4199 25.2009 35.9199ZM27.8409 61.7199C26.4009 61.7199 25.2009 60.5199 25.2009 59.0799C25.2009 57.6399 26.4009 56.4399 27.8409 56.4399C29.2809 56.4399 30.4809 57.6399 30.4809 59.0799C30.5409 60.5199 29.3409 61.7199 27.8409 61.7199ZM48.0009 73.4199C46.5609 73.4199 45.3609 72.2199 45.3609 70.7799C45.3609 69.3399 46.5609 68.1399 48.0009 68.1399C49.4409 68.1399 50.6409 69.3399 50.6409 70.7799C50.6409 72.2199 49.4409 73.4199 48.0009 73.4199ZM51.2409 67.8999C50.6409 67.1799 49.8009 66.6999 48.8409 66.4599V61.6599H47.1609V66.4599C46.2009 66.6399 45.3609 67.1799 44.7609 67.8399L31.9209 60.5199C32.1009 60.0399 32.2209 59.5599 32.2209 59.0799C32.2209 58.5999 32.1009 58.1799 31.9809 57.7599L35.4009 55.7799L34.5609 54.2799L31.1409 56.2599C30.5409 55.5399 29.6409 54.9999 28.6809 54.8199V40.1799C29.6409 39.9999 30.4809 39.4599 31.1409 38.7399L35.2809 41.1399L36.1209 39.6399L31.9809 37.2399C32.1009 36.8199 32.2209 36.3399 32.2209 35.9199C32.2209 35.4399 32.1009 34.9599 31.9809 34.4799L44.7609 27.0999C45.3609 27.8199 46.2009 28.2999 47.1609 28.5399V33.2799H48.8409V28.5399C49.8009 28.3599 50.6409 27.8199 51.2409 27.1599L64.0209 34.5399C63.8409 35.0199 63.7809 35.4999 63.7809 35.9799C63.7809 36.4599 63.9009 36.8799 64.0209 37.2999L60.3609 39.3999L61.2009 40.8999L64.8609 38.7999C65.4609 39.5199 66.3009 40.0599 67.3209 40.2399V54.8199C66.3609 54.9999 65.4609 55.5399 64.8609 56.2599L61.2609 54.1599L60.4209 55.6599L64.0809 57.7599C63.9609 58.1799 63.8409 58.5999 63.8409 59.0799C63.8409 59.6199 63.9609 60.0999 64.1409 60.5199L51.2409 67.8999ZM68.1609 61.7199C66.7209 61.7199 65.5209 60.5199 65.5209 59.0799C65.5209 57.6399 66.7209 56.4399 68.1609 56.4399C69.6009 56.4399 70.8009 57.6399 70.8009 59.0799C70.8009 60.5199 69.6009 61.7199 68.1609 61.7199Z" fill="#3B4146"/>
<path d="M59.1008 45.1598L56.4008 44.2598L56.2208 43.8998L57.4808 41.3198C57.6608 41.0198 57.6008 40.5998 57.3008 40.3598L55.0808 38.1398C54.8408 37.8998 54.4208 37.8398 54.1208 37.9598L51.6008 39.2798L51.2408 39.0998L50.3408 36.3998C50.2208 36.0398 49.9208 35.7998 49.5608 35.7998H46.4408C46.0808 35.7998 45.7808 36.0398 45.6608 36.3998L44.7608 39.0998L44.4008 39.2798L41.8208 38.0198C41.5208 37.8398 41.1008 37.8998 40.8608 38.1998L38.6408 40.4198C38.4008 40.6598 38.3408 41.0798 38.4608 41.3798L39.7208 43.9598L39.6008 44.2598L36.9008 45.1598C36.5408 45.2798 36.3008 45.5798 36.3008 45.9398V49.0598C36.3008 49.4198 36.5408 49.7798 36.9008 49.8398L39.6008 50.7398L39.7208 51.0998L38.4608 53.6798C38.2808 53.9798 38.3408 54.3998 38.6408 54.6398L40.8608 56.8598C41.1008 57.0998 41.5208 57.1598 41.8208 57.0398L44.4008 55.7798L44.7608 55.8998L45.6608 58.5998C45.7808 58.9598 46.0808 59.1998 46.4408 59.1998H49.5608C49.9208 59.1998 50.2208 58.9598 50.3408 58.5998L51.2408 55.8998L51.6008 55.7798L54.1808 57.0398C54.4808 57.2198 54.9008 57.1598 55.1408 56.8598L57.3608 54.6398C57.6008 54.3998 57.6608 53.9798 57.5408 53.6798L56.2208 51.0998L56.3408 50.7398L59.0408 49.8398C59.4008 49.7198 59.6408 49.4198 59.6408 49.0598V45.9398C59.6408 45.5798 59.4608 45.2798 59.1008 45.1598ZM57.9608 48.4598L55.5008 49.2998C55.2608 49.3598 55.0808 49.5398 54.9608 49.7798L54.5408 50.8598C54.4208 51.0998 54.4808 51.3398 54.5408 51.5798L55.7408 53.9198L54.4208 55.2398L52.0808 54.0398C51.8408 53.9198 51.6008 53.9198 51.3608 54.0398L50.2808 54.4598C50.0408 54.5798 49.8608 54.7598 49.8008 54.9998L48.9608 57.5198H47.1008L46.2008 54.9998C46.1408 54.7598 45.9608 54.5798 45.7208 54.4598L44.6408 54.0398C44.4008 53.9198 44.1608 53.9798 43.9208 54.0398L41.5808 55.2398L40.2608 53.9198L41.4608 51.5798C41.5808 51.3398 41.5808 51.0998 41.4608 50.8598L41.0408 49.7798C40.9208 49.5398 40.7408 49.3598 40.5008 49.2998L37.9808 48.4598V46.5998L40.5008 45.7598C40.7408 45.6998 40.9208 45.5198 41.0408 45.2798L41.4608 44.1998C41.5808 43.9598 41.5208 43.7198 41.4608 43.4798L40.2608 41.1398L41.5808 39.8198L43.9208 41.0198C44.1608 41.1398 44.4008 41.1398 44.6408 41.0198L45.7208 40.5998C45.9608 40.4798 46.1408 40.2998 46.2008 40.0598L47.0408 37.5398H48.9008L49.7408 40.0598C49.8008 40.2998 49.9808 40.4798 50.2208 40.5998L51.3008 41.0198C51.5408 41.1398 51.7808 41.0798 52.0208 41.0198L54.3608 39.8198L55.6808 41.1398L54.4808 43.4798C54.3608 43.7198 54.3608 43.9598 54.4808 44.1998L54.9008 45.2798C55.0208 45.5198 55.2008 45.6998 55.4408 45.7598L57.9608 46.5998V48.4598Z" fill="#3B4146"/>
<path d="M48 43C45.54 43 43.5 45.04 43.5 47.5C43.5 49.96 45.54 52 48 52C50.46 52 52.5 49.96 52.5 47.5C52.5 45.04 50.46 43 48 43ZM48 50.32C46.44 50.32 45.18 49.06 45.18 47.5C45.18 45.94 46.44 44.68 48 44.68C49.56 44.68 50.82 45.94 50.82 47.5C50.82 49.06 49.56 50.32 48 50.32Z" fill="#3B4146"/>
</g>
</g>
</g>
</g>
<defs>
<clipPath id="clip0_459_1920">
<rect width="60" height="60" fill="white" transform="translate(18 17.5)"/>
</clipPath>
<clipPath id="clip1_459_1920">
<rect width="60" height="60" fill="white" transform="translate(18 17.5)"/>
</clipPath>
<clipPath id="clip2_459_1920">
<rect width="60" height="60" fill="white" transform="translate(18 17.5)"/>
</clipPath>
<clipPath id="clip3_459_1920">
<rect width="60" height="60" fill="white" transform="translate(18 17.5)"/>
</clipPath>
<clipPath id="clip4_459_1920">
<rect width="60" height="60" fill="white" transform="translate(18 17.5)"/>
</clipPath>
<clipPath id="clip5_459_1920">
<rect width="60" height="60" fill="white" transform="translate(18 17.5)"/>
</clipPath>
</defs>
</svg>
