<svg width="25" height="26" viewBox="0 0 25 26" fill="none" xmlns="http://www.w3.org/2000/svg">
<path d="M23.3281 18.537V7.46301C23.3272 7.30305 23.2834 7.14614 23.2009 7.00811C23.1184 6.87008 23.0002 6.75581 22.8583 6.67682L12.775 1.11737C12.6391 1.04048 12.485 1 12.3281 1C12.1712 1 12.0171 1.04048 11.8813 1.11737L1.79792 6.67682C1.65601 6.75581 1.53785 6.87008 1.45537 7.00811C1.37289 7.14614 1.329 7.30305 1.32812 7.46301V18.537C1.329 18.697 1.37289 18.8539 1.45537 18.9919C1.53785 19.1299 1.65601 19.2442 1.79792 19.3232L11.8813 24.8826C12.0171 24.9595 12.1712 25 12.3281 25C12.485 25 12.6391 24.9595 12.775 24.8826L22.8583 19.3232C23.0002 19.2442 23.1184 19.1299 23.2009 18.9919C23.2834 18.8539 23.3272 18.697 23.3281 18.537V18.537Z" stroke="#1C1F35" stroke-width="2" stroke-linecap="round" stroke-linejoin="round"/>
<path d="M18.3281 16V10.0853L7.32812 4" stroke="#1C1F35" stroke-width="2" stroke-linecap="round" stroke-linejoin="round"/>
<path d="M23.3281 7L12.4324 13L1.32812 7" stroke="#1C1F35" stroke-width="2" stroke-linecap="round" stroke-linejoin="round"/>
<path d="M12.3281 13V25" stroke="#1C1F35" stroke-width="2" stroke-linecap="round" stroke-linejoin="round"/>
</svg>
