<svg width="33" height="32" viewBox="0 0 33 32" fill="none" xmlns="http://www.w3.org/2000/svg">
<path d="M16.3281 8V5" stroke="#1C1F35" stroke-width="2" stroke-linecap="round" stroke-linejoin="round"/>
<path d="M26.3281 19.487C24.8073 24.8216 17.7656 26.6835 16.5156 26.9764C16.3926 27.0079 16.2637 27.0079 16.1406 26.9764C14.8906 26.6835 7.84896 24.8216 6.32813 19.487V15.9096C6.32811 15.7334 6.38349 15.5617 6.48636 15.4189C6.58924 15.2762 6.73436 15.1697 6.90104 15.1146L16.0677 12.0393C16.2374 11.9869 16.4189 11.9869 16.5885 12.0393L25.7552 15.1146C25.9219 15.1697 26.067 15.2762 26.1699 15.4189C26.2728 15.5617 26.3281 15.7334 26.3281 15.9096V19.487Z" stroke="#1C1F35" stroke-width="2" stroke-linecap="round" stroke-linejoin="round"/>
<path d="M16.3281 20V12" stroke="#1C1F35" stroke-width="2" stroke-linecap="round" stroke-linejoin="round"/>
<path d="M9.32812 14V8.75C9.32812 8.55109 9.41592 8.36032 9.5722 8.21967C9.72848 8.07902 9.94044 8 10.1615 8H23.4948C23.7158 8 23.9278 8.07902 24.084 8.21967C24.2403 8.36032 24.3281 8.55109 24.3281 8.75V14" stroke="#1C1F35" stroke-width="2" stroke-linecap="round" stroke-linejoin="round"/>
</svg>
