<svg width="27" height="26" viewBox="0 0 27 26" fill="none" xmlns="http://www.w3.org/2000/svg">
<path d="M13.3281 1C19.9555 1 25.3281 6.37258 25.3281 13C25.3281 19.6274 19.9555 25 13.3281 25C6.70071 25 1.32812 19.6274 1.32812 13C1.32812 6.37258 6.70071 1 13.3281 1Z" stroke="#1C1F35" stroke-width="2" stroke-linecap="round" stroke-linejoin="round"/>
<path d="M2.32812 17H24.3281" stroke="#1C1F35" stroke-width="2" stroke-linecap="round" stroke-linejoin="round"/>
<path d="M2.32812 9H24.3281" stroke="#1C1F35" stroke-width="2" stroke-linecap="round" stroke-linejoin="round"/>
<path d="M13.3281 1C15.5373 1 17.3281 6.37258 17.3281 13C17.3281 19.6274 15.5373 25 13.3281 25C11.119 25 9.32812 19.6274 9.32812 13C9.32812 6.37258 11.119 1 13.3281 1Z" stroke="#1C1F35" stroke-width="2" stroke-linecap="round" stroke-linejoin="round"/>
</svg>
