<svg width="22" height="18" viewBox="0 0 22 18" fill="none" xmlns="http://www.w3.org/2000/svg">
<path d="M20.3281 10.143H17.186C16.7693 10.143 16.3697 10.3035 16.0751 10.5893C15.7805 10.8751 15.6149 11.2626 15.6149 11.6668V15.4762C15.6149 15.8804 15.7805 16.2679 16.0751 16.5537C16.3697 16.8395 16.7693 17 17.186 17H18.7571C19.1737 17 19.5733 16.8395 19.868 16.5537C20.1626 16.2679 20.3281 15.8804 20.3281 15.4762V10.143ZM20.3281 10.143C20.3282 8.93592 20.0818 7.74079 19.6031 6.62656C19.1245 5.51232 18.4232 4.50104 17.5395 3.65106C16.6558 2.80108 15.6074 2.12923 14.4547 1.67427C13.3019 1.21932 12.0677 0.990259 10.8232 1.00032C9.57956 0.991522 8.3464 1.22151 7.19479 1.67703C6.04319 2.13256 4.99591 2.80461 4.1133 3.65446C3.23069 4.50431 2.53019 5.51517 2.05218 6.62878C1.57417 7.74238 1.32809 8.93673 1.32813 10.143V15.4762C1.32813 15.8804 1.49365 16.2679 1.78828 16.5537C2.08291 16.8395 2.48251 17 2.89918 17H4.47024C4.88691 17 5.28652 16.8395 5.58115 16.5537C5.87578 16.2679 6.0413 15.8804 6.0413 15.4762V11.6668C6.0413 11.2626 5.87578 10.8751 5.58115 10.5893C5.28652 10.3035 4.88691 10.143 4.47024 10.143H1.32813" stroke="#1C1F35" stroke-width="2" stroke-linecap="round" stroke-linejoin="round"/>
</svg>
