<svg width="45" height="40" viewBox="0 0 45 40" fill="none" xmlns="http://www.w3.org/2000/svg">
<path d="M0.360352 39.9839L3.74969 7.98445C4.21399 3.43302 8.02119 -0.00378418 12.6177 -0.00378418H44.0504L41.311 26.0044C40.8467 30.5559 36.9931 33.9927 32.443 33.9927H11.8748L0.360352 39.9839ZM12.6177 1.38951C8.71763 1.38951 5.51401 4.26899 5.09614 8.12378L1.98538 37.5688L11.5034 32.5994H32.3966C36.2502 32.5994 39.5003 29.7199 39.8717 25.8651L42.5182 1.38951H12.6177Z" fill="#5498FE" stroke="#5498FE" stroke-width="0.464433"/>
<path d="M33.7425 8.58826H12.6172V9.98155H33.7425V8.58826Z" fill="#5498FE" stroke="#5498FE" stroke-width="0.464433"/>
<path d="M33.2318 13.2325H12.1064V14.6258H33.2318V13.2325Z" fill="#5498FE" stroke="#5498FE" stroke-width="0.464433"/>
<path d="M32.7679 17.877H11.6426V19.2703H32.7679V17.877Z" fill="#5498FE" stroke="#5498FE" stroke-width="0.464433"/>
<path d="M27.6142 22.5212H11.1318V23.9145H27.6142V22.5212Z" fill="#5498FE" stroke="#5498FE" stroke-width="0.464433"/>
</svg>
