<svg width="44" height="40" viewBox="0 0 44 40" fill="none" xmlns="http://www.w3.org/2000/svg">
<path d="M1.02778 39.986H0.279297L2.65683 17.3914C3.14114 13.2512 6.66341 10.08 10.8021 9.99194H22.9979V11.3133H10.8021C7.32383 11.4014 4.37393 14.088 3.97768 17.5235L1.77626 38.6206H21.7211C25.8157 38.5766 29.338 35.4054 29.8223 31.3093L31.0111 18.6686L32.3319 18.8008L31.1432 31.4414C30.5708 36.1982 26.5202 39.8539 21.7651 39.986H1.02778Z" fill="#5498FE" stroke="#5498FE" stroke-width="0.440441"/>
<path d="M25.4638 21.7077C25.3317 21.7077 25.1556 21.7077 25.0236 21.6636C24.5392 21.5315 24.143 21.2232 23.8788 20.8268C23.6146 20.3864 23.5266 19.8138 23.7027 19.2852L25.0676 14.3083C25.1116 14.088 25.0676 13.9119 24.9355 13.7357L21.6774 10.1681C21.1931 9.63958 21.061 8.93488 21.3252 8.23017C21.5893 7.48142 22.2498 6.90885 23.0423 6.77672L28.1496 6.02797C28.4137 5.98392 28.6339 5.85179 28.766 5.63157L31.4957 1.05098C31.892 0.346274 32.6845 -0.0501235 33.477 -0.0060794C34.1814 0.0379647 34.7978 0.478406 35.062 1.13907L36.8231 5.71966C36.8672 5.89583 37.0433 6.02797 37.2194 6.02797L42.1946 6.77672C42.8991 6.8648 43.4714 7.39333 43.6916 8.054C43.9117 8.80275 43.6475 9.63958 43.0311 10.2122L39.0246 13.7797C38.8484 13.9559 38.7164 14.1761 38.7604 14.4404L39.1126 19.4614C39.1566 20.6506 38.2761 21.6636 37.0873 21.7077C36.7351 21.7077 36.3829 21.6636 36.0747 21.5315L36.0306 21.4875L31.7599 19.1091C31.5838 19.021 31.3636 19.021 31.1435 19.1091L26.3884 21.4875C26.1243 21.6196 25.772 21.7077 25.4638 21.7077ZM33.3449 1.31524C33.1248 1.31524 32.8166 1.40333 32.6405 1.71164L29.9107 6.29223C29.5585 6.8648 28.9861 7.2612 28.3257 7.34929L23.2184 8.09804C22.8662 8.14208 22.602 8.45039 22.558 8.67061C22.5139 8.7587 22.4699 9.06701 22.646 9.28723L25.9041 12.8548C26.3444 13.3393 26.5205 14.044 26.3004 14.6606L24.9355 19.6376C24.8915 19.8138 24.8915 19.99 24.9795 20.1221C25.0676 20.2542 25.1556 20.3423 25.3317 20.3864C25.4638 20.4304 25.6399 20.3864 25.772 20.3423L25.8161 20.2983L30.5711 17.9199C31.1435 17.6116 31.8479 17.6116 32.4203 17.9199L36.647 20.2983C36.7791 20.3423 36.8672 20.3864 36.9993 20.3423C37.4395 20.3423 37.7918 19.9459 37.7918 19.5055L37.4395 14.4844C37.3955 13.8238 37.6597 13.2072 38.144 12.7667L42.1506 9.19914C42.4588 8.93488 42.4588 8.62657 42.4147 8.40635C42.3707 8.27422 42.2827 8.09804 41.9745 8.054L36.9993 7.30525C36.3388 7.21716 35.8105 6.77672 35.5463 6.1601L33.7852 1.57951C33.7412 1.40333 33.521 1.31524 33.3889 1.31524H33.3449Z" fill="#5498FE" stroke="#5498FE" stroke-width="0.440441"/>
<path d="M18.4624 17.4354H6.79492V18.7567H18.4624V17.4354Z" fill="#5498FE" stroke="#5498FE" stroke-width="0.440441"/>
<path d="M20.6198 21.8398H6.31055V23.1612H20.6198V21.8398Z" fill="#5498FE" stroke="#5498FE" stroke-width="0.440441"/>
<path d="M25.904 26.2443H5.87109V27.5656H25.904V26.2443Z" fill="#5498FE" stroke="#5498FE" stroke-width="0.440441"/>
<path d="M21.0168 30.6487H5.38672V31.97H21.0168V30.6487Z" fill="#5498FE" stroke="#5498FE" stroke-width="0.440441"/>
</svg>
