<svg width="35" height="40" viewBox="0 0 35 40" fill="none" xmlns="http://www.w3.org/2000/svg">
<path d="M16.2312 35.4402H0.640625L2.76468 14.9109C3.35941 9.21532 8.49961 4.5824 14.2346 4.5824V5.85752C9.13683 5.85752 4.59136 9.9804 4.03911 15.0809L2.0425 34.1651H16.1887V35.4402H16.2312Z" fill="#5498FE" stroke="#5498FE" stroke-width="0.425039"/>
<path d="M11.9824 39.9882L11.1328 39.0531L15.7208 34.8027L11.1328 30.5098L11.9824 29.5747L17.5899 34.8027L11.9824 39.9882Z" fill="#5498FE" stroke="#5498FE" stroke-width="0.425039"/>
<path d="M20.606 35.4402V34.1651C25.7037 34.1651 30.2492 30.0422 30.8014 24.9418L32.798 5.85752H18.6094V4.5824H34.1999L32.0759 25.0693C31.4386 30.8073 26.2984 35.4402 20.606 35.4402Z" fill="#5498FE" stroke="#5498FE" stroke-width="0.425039"/>
<path d="M22.8575 -0.00805664L23.7071 0.92703L19.1192 5.21993L23.7071 9.47032L22.8575 10.4054L17.25 5.21993L22.8575 -0.00805664Z" fill="#5498FE" stroke="#5498FE" stroke-width="0.425039"/>
<path d="M17.0382 26.5994C16.9532 26.5994 16.8682 26.5994 16.8258 26.5569L11.0483 24.1341C10.7935 24.0491 10.666 23.7941 10.666 23.4966L11.4307 16.2709C11.4732 16.0584 11.6006 15.8459 11.813 15.7609L18.1002 13.3382C18.2276 13.2956 18.3976 13.2956 18.5675 13.3382L24.3449 15.7609C24.5998 15.8459 24.7272 16.1009 24.7272 16.3984L23.9626 23.6241C23.9201 23.8366 23.7926 24.0491 23.5802 24.1341L17.2931 26.5569C17.2081 26.5569 17.1231 26.5994 17.0382 26.5994ZM11.898 23.1991L17.0382 25.3668L22.7731 23.1566L23.4528 16.7385L18.3126 14.5708L12.5777 16.781L11.898 23.1991Z" fill="#5498FE" stroke="#5498FE" stroke-width="0.425039"/>
<path d="M17.8023 19.3312C17.7174 19.3312 17.6324 19.3312 17.5899 19.2887L11.8125 16.866L12.2798 15.7609L17.8448 18.0986L23.9196 15.7609L24.3444 16.9085L18.0572 19.3312C17.9298 19.3312 17.8873 19.3312 17.8023 19.3312Z" fill="#5498FE" stroke="#5498FE" stroke-width="0.425039"/>
<path d="M17.8041 18.7362L17.0391 26.0044" stroke="#5498FE" stroke-width="0.425039"/>
<path d="M17.1986 18.709L16.4395 25.9373L17.623 26.0617L18.3821 18.8335L17.1986 18.709Z" fill="#5498FE" stroke="#5498FE" stroke-width="0.425039"/>
<path d="M17.1986 18.709L16.4395 25.9373L17.623 26.0617L18.3821 18.8335L17.1986 18.709Z" fill="#5498FE" stroke="#5498FE" stroke-width="0.425039"/>
</svg>
