<svg width="63" height="40" viewBox="0 0 63 40" fill="none" xmlns="http://www.w3.org/2000/svg">
<path d="M35.5236 32.9141H29.2896C28.7993 32.9141 28.4491 32.5639 28.379 32.0735L28.2389 28.1507C27.1883 27.7304 26.2076 27.1 25.3671 26.3995L20.8842 28.1507C20.4639 28.2908 19.9736 28.1507 19.7635 27.7304L18.3626 24.7183C18.2926 24.5081 18.2926 24.298 18.2926 24.0878C18.4326 23.5975 18.5727 23.1071 18.5727 22.5468C18.6428 21.9864 18.6428 21.426 18.5727 20.8656C18.5027 20.5153 18.6428 20.2351 18.923 20.025L21.4446 18.2037C21.4446 17.6433 21.4446 17.0128 21.5146 16.4524C21.5847 15.892 21.6547 15.3316 21.7948 14.7712L18.5727 11.8992C18.2225 11.619 18.1525 11.1286 18.4326 10.7083L22.2151 5.10436C22.4252 4.75411 22.9155 4.61401 23.2657 4.75411L27.3984 6.50535C28.4491 5.7348 29.5698 5.17441 30.7605 4.68406L31.8112 0.69122C31.8813 0.270922 32.2315 -0.00927734 32.6518 -0.00927734H38.8857C39.3761 -0.00927734 39.7263 0.340972 39.7963 0.83132L39.9364 4.75411C40.9871 5.17441 41.9677 5.80485 42.8083 6.50535L47.2911 4.75411C47.7114 4.61401 48.2017 4.75411 48.4118 5.17441L51.0735 10.7083C51.2837 11.0586 51.1436 11.5489 50.7934 11.8291L46.8008 14.7012C46.8709 15.822 46.7308 17.0128 46.4506 18.1336L48.4118 19.8148C48.692 20.025 48.7621 20.4453 48.692 20.7955C48.4819 21.3559 48.3418 21.9864 48.2718 22.6168C48.2017 23.1772 48.2017 23.7376 48.2718 24.298C48.2718 24.5081 48.2717 24.7183 48.1317 24.8584L46.1704 27.7304C45.9603 28.0807 45.47 28.2208 45.1197 28.0106L40.9871 26.2594C39.9364 27.0299 38.7457 27.6604 37.5549 28.1507L36.3641 32.2136C36.2941 32.6339 35.9439 32.9141 35.5236 32.9141ZM30.2002 31.1629H34.8932L35.8738 27.3101C35.9439 27.0299 36.154 26.8198 36.4342 26.6797C37.8351 26.1893 39.0959 25.4888 40.2166 24.5782C40.4968 24.368 40.847 24.298 41.1272 24.4381L45.0497 26.1193L46.4506 24.0878C46.3805 23.5274 46.4506 22.967 46.4506 22.4067C46.5206 21.8463 46.5907 21.2859 46.8008 20.7955L44.8396 19.1844C44.4893 18.9042 44.4193 18.5539 44.4893 18.2037C44.8396 16.9428 44.9796 15.6819 44.9096 14.3509C44.9096 14.0707 45.0497 13.7205 45.2598 13.5804L49.0422 10.8484L47.081 6.7155L42.8783 8.32665C42.5981 8.46675 42.1779 8.3967 41.9677 8.18655C40.9871 7.34595 39.9364 6.64545 38.6756 6.22515C38.3254 6.08505 38.1153 5.80485 38.1153 5.45461L37.9752 1.81202H33.2822L32.3716 5.5947C32.3015 5.8749 32.0914 6.1551 31.8112 6.22515C30.4804 6.7155 29.2196 7.34595 28.0288 8.2566C27.7486 8.46675 27.4684 8.46675 27.1182 8.3967L23.1957 6.78555L20.2538 11.1286L23.4058 13.7905C23.686 14.0007 23.7561 14.3509 23.686 14.7012C23.4759 15.3316 23.3358 15.9621 23.2657 16.6626C23.1957 17.293 23.1957 17.9235 23.2657 18.5539C23.2657 18.8341 23.1257 19.1844 22.9155 19.3245L20.3939 21.1458C20.3939 21.7062 20.3939 22.1965 20.3239 22.7569C20.2538 23.2472 20.1838 23.7376 20.0437 24.2279L20.9543 26.1893L25.157 24.5782C25.4371 24.4381 25.7874 24.5081 26.0675 24.7183C27.0482 25.5589 28.0988 26.2594 29.3596 26.6797C29.7099 26.8198 29.92 27.1 29.92 27.4502L30.2002 31.1629ZM33.4923 21.9163C30.7605 21.9163 28.5892 19.7448 28.5191 17.0128C28.5191 16.7326 28.5191 16.5225 28.5892 16.2423C28.9394 13.2301 31.531 10.9185 34.613 10.8484C37.4148 10.7784 39.6562 13.02 39.7263 15.7519C39.7263 16.0321 39.7263 16.2423 39.6562 16.5225C39.306 19.5346 36.7144 21.9163 33.6324 21.9163C33.6324 21.9163 33.5623 21.9163 33.4923 21.9163ZM34.6831 12.5997C32.4416 12.6697 30.5504 14.2809 30.3403 16.4524C30.3403 16.6626 30.3403 16.8027 30.3403 16.9428C30.4103 18.694 31.8112 20.095 33.5623 20.095H33.6324C35.8038 20.025 37.695 18.3438 37.9051 16.2423C37.9051 16.1022 37.9051 15.892 37.9051 15.7519C37.9051 14.0007 36.4342 12.5997 34.6831 12.5997Z" fill="#5498FE" stroke="#5498FE" stroke-width="0.700498"/>
<path d="M39.4457 39.8491C39.3756 39.8491 39.3056 39.8491 39.2355 39.8491C38.8152 39.779 38.535 39.3587 38.6751 38.9384C38.8152 38.378 40.0761 33.3344 42.3878 32.3538C43.3685 31.9335 44.3491 31.7233 45.3298 31.5132C47.4313 31.0228 48.5521 30.7426 48.6922 29.3416C48.7623 28.9213 49.1125 28.6411 49.5328 28.6411C49.9531 28.7112 50.3034 29.0614 50.2333 29.4817C49.9531 32.0736 47.6415 32.5639 45.6801 32.9842C44.7694 33.1943 43.8588 33.4045 43.0883 33.7547C41.8974 34.3151 40.7066 37.3973 40.2162 39.2887C40.0761 39.5689 39.7959 39.8491 39.4457 39.8491Z" fill="#5498FE" stroke="#5498FE" stroke-width="0.700498"/>
<path d="M62.0708 39.8491C61.6505 39.8491 61.3003 39.4988 61.3003 39.0786C61.2302 37.1872 60.6698 34.1751 59.7592 33.6847C58.9886 33.3345 58.148 33.1243 57.3074 32.9142C55.4161 32.4939 53.0344 31.9335 53.3146 29.2015C53.3846 28.7812 53.7349 28.431 54.1552 28.501C54.5755 28.5711 54.9257 28.9213 54.8557 29.3416C54.7156 30.5325 55.346 30.8127 57.5876 31.303C58.4983 31.5132 59.479 31.7233 60.3896 32.1436C62.5612 33.1944 62.8414 37.9578 62.8414 38.8684C62.8414 39.4288 62.5612 39.779 62.0708 39.8491Z" fill="#5498FE" stroke="#5498FE" stroke-width="0.700498"/>
<path d="M51.7739 30.6024C50.5831 30.6024 49.4623 30.0421 48.5516 29.0614C47.0806 27.4502 46.3801 24.7883 46.6603 22.1965C47.0806 18.2737 49.7425 15.5417 53.245 15.5417C54.7861 15.5417 56.187 16.1021 57.1677 17.2229C58.2885 18.4838 58.7789 20.3051 58.5687 22.4066C58.0784 26.1893 55.2064 30.6024 51.7739 30.6024ZM53.1749 17.0828C50.5831 17.0828 48.4816 19.2544 48.2014 22.3366C47.9912 24.5081 48.5516 26.6797 49.7425 28.0106C50.1628 28.501 50.8633 29.0614 51.7739 29.0614C54.0856 29.0614 56.6074 25.699 56.9576 22.1965C57.0977 20.5153 56.8175 19.1843 55.9769 18.2737C55.2764 17.4331 54.2957 17.0828 53.1749 17.0828Z" fill="#5498FE" stroke="#5498FE" stroke-width="0.700498"/>
<path d="M48.5518 36.8368C48.4817 36.8368 48.4117 36.8368 48.3416 36.8368C48.0614 36.7668 47.8513 36.5566 47.7812 36.2764L46.6604 32.7039C46.5203 32.2836 46.7305 31.8633 47.1508 31.7232C47.2909 31.6532 47.501 31.6532 47.6411 31.7232C47.501 31.443 47.501 31.0227 47.7812 30.8126C48.0614 30.5324 48.5518 30.5324 48.902 30.8126L51.3537 33.2643C51.4938 33.4044 51.5639 33.6146 51.5639 33.8247C51.5639 34.0349 51.4938 34.245 51.3537 34.3851L49.0421 36.6267C48.902 36.7668 48.7619 36.8368 48.5518 36.8368ZM48.2015 32.2836L48.902 34.5953L49.7426 33.8247L48.2015 32.2836Z" fill="#5498FE" stroke="#5498FE" stroke-width="0.700498"/>
<path d="M53.6652 36.8369C53.4551 36.8369 53.2449 36.7669 53.0348 36.5567L51.2135 34.3151C51.0734 34.175 51.0033 33.9649 51.0734 33.7547C51.1434 33.5446 51.2135 33.3344 51.3536 33.1943L54.3657 30.7426C54.716 30.4624 55.2063 30.5324 55.4865 30.8827C55.6967 31.0928 55.6967 31.4431 55.5566 31.7233C55.6967 31.7233 55.7667 31.7233 55.9068 31.7933C56.2571 32.0035 56.4672 32.4938 56.2571 32.8441L54.3657 36.4166C54.2256 36.6268 54.0155 36.8369 53.7353 36.8369H53.6652ZM52.9647 33.9649L53.5251 34.6654L54.5759 32.5639L52.9647 33.9649Z" fill="#5498FE" stroke="#5498FE" stroke-width="0.700498"/>
<path d="M1.13121 39.9191C1.06116 39.9191 0.991111 39.9191 0.921061 39.9191C0.500762 39.849 0.220563 39.4287 0.360663 39.0084C0.500762 38.448 1.76166 33.4745 4.0733 32.4238C5.054 32.0035 6.10474 31.7933 7.01539 31.5832C9.11688 31.0928 10.2377 30.8126 10.3778 29.4116C10.4478 28.9913 10.7981 28.6411 11.2184 28.7111C11.6387 28.7812 11.9889 29.1314 11.9189 29.5517C11.6387 32.1436 9.39708 32.6339 7.36564 33.0542C6.45499 33.2644 5.54435 33.4745 4.70375 33.8248C3.5129 34.3851 2.32206 37.4673 1.83171 39.3587C1.83171 39.7089 1.48146 39.9191 1.13121 39.9191Z" fill="#5498FE" stroke="#5498FE" stroke-width="0.700498"/>
<path d="M23.7564 39.9891C23.3361 39.9891 22.9858 39.6389 22.9858 39.2186C22.9158 37.3272 22.3554 34.3151 21.4447 33.8948C20.7442 33.5446 19.8336 33.3344 18.993 33.1243C17.1016 32.704 14.7199 32.1436 15.0001 29.4116C15.0702 28.9913 15.4204 28.6411 15.8407 28.7111C16.261 28.7812 16.6113 29.1314 16.5412 29.5517C16.4011 30.7426 17.0316 31.0228 19.2732 31.5832C20.1838 31.7933 21.1645 32.0035 22.0752 32.4238C24.2467 33.4745 24.5269 38.1678 24.5269 39.1485C24.597 39.5688 24.2467 39.9191 23.7564 39.9891Z" fill="#5498FE" stroke="#5498FE" stroke-width="0.700498"/>
<path d="M13.4595 30.7426C12.2687 30.7426 11.1479 30.1822 10.2372 29.2015C8.7662 27.5903 8.0657 24.8584 8.27585 22.3366C8.69615 18.4138 11.358 15.6819 14.7905 15.6819C16.3316 15.6819 17.7326 16.3123 18.7133 17.3631C19.8341 18.624 20.3244 20.3752 20.1143 22.5468C19.764 26.3995 16.962 30.7426 13.4595 30.7426ZM14.8605 17.223C12.2687 17.223 10.2372 19.3945 9.88699 22.4767C9.67684 24.6483 10.2372 26.8198 11.4281 28.1507C11.8484 28.6411 12.5489 29.2015 13.4595 29.2015C15.7712 29.2015 18.293 25.8391 18.6432 22.3366C18.7833 20.6554 18.5031 19.3245 17.6625 18.4138C16.962 17.6433 16.0514 17.223 14.8605 17.223Z" fill="#5498FE" stroke="#5498FE" stroke-width="0.700498"/>
<path d="M10.2376 36.977C10.1675 36.977 10.0975 36.977 10.0274 36.977C9.74722 36.907 9.53707 36.6968 9.46702 36.4166L8.41627 32.9141C8.27617 32.4938 8.48632 32.0735 8.90662 31.9334C9.04672 31.8634 9.25687 31.8634 9.39697 31.9334C9.25687 31.6532 9.25687 31.2329 9.53707 31.0228C9.81727 30.7426 10.3076 30.7426 10.6579 31.0228L13.1096 33.4745C13.2497 33.6146 13.3198 33.8248 13.3198 34.0349C13.3198 34.2451 13.2497 34.4552 13.1096 34.5953L10.798 36.8369C10.6579 36.907 10.4477 36.977 10.2376 36.977ZM9.88732 32.4238L10.5878 34.7354L11.4284 33.9649L9.88732 32.4238Z" fill="#5498FE" stroke="#5498FE" stroke-width="0.700498"/>
<path d="M15.3501 36.9769C15.1399 36.9769 14.9298 36.9069 14.7196 36.6967L12.9684 34.4552C12.8283 34.3151 12.7582 34.1049 12.8283 33.8948C12.8983 33.6846 12.9684 33.4745 13.1085 33.3344L16.1206 30.8826C16.4709 30.6024 16.9612 30.6725 17.2414 31.0227C17.4515 31.2329 17.4515 31.5831 17.3114 31.8633C17.4515 31.8633 17.5216 31.8633 17.6617 31.9334C18.0119 32.1435 18.2221 32.6339 18.0119 32.9841L16.1907 36.5566C16.0506 36.7668 15.8404 36.9769 15.5602 36.9769C15.4201 36.9769 15.4201 36.9769 15.3501 36.9769ZM14.6496 34.1049L15.21 34.8054L16.2607 32.7039L14.6496 34.1049Z" fill="#5498FE" stroke="#5498FE" stroke-width="0.700498"/>
</svg>
