<svg width="53" height="40" viewBox="0 0 53 40" fill="none" xmlns="http://www.w3.org/2000/svg">
<path d="M18.9889 17.6672L16.7285 39.1245L18.2503 39.2849L20.5107 17.8276L18.9889 17.6672Z" fill="#5498FE" stroke="#5498FE" stroke-width="0.51007"/>
<path d="M34.043 7.30182L30.7148 39.1106L32.2368 39.2699L35.5649 7.46117L34.043 7.30182Z" fill="#5498FE" stroke="#5498FE" stroke-width="0.51007"/>
<path d="M3.64807 39.9848H2.78125L3.954 28.7122L5.48368 28.8653L4.46389 38.4546H37.301C41.5331 38.4546 45.1023 35.2411 45.5102 31.0586L47.2439 14.7363L48.7735 14.8893L47.0399 31.2116C46.53 36.2103 42.3489 39.9848 37.301 39.9848H3.64807Z" fill="#5498FE" stroke="#5498FE" stroke-width="0.51007"/>
<path d="M4.51581 29.5793C2.42525 29.5793 0.691614 27.8961 0.640625 25.7538C0.640625 25.5498 0.640625 25.3457 0.691614 25.1927C0.99755 22.8464 2.98613 21.0611 5.33163 21.0101C6.35142 21.0101 7.32021 21.3672 8.08505 22.0813C8.84989 22.7954 9.2578 23.7645 9.30879 24.7846C9.30879 24.9887 9.30879 25.1927 9.2578 25.3967C8.95187 27.743 6.96329 29.5283 4.61778 29.5793C4.5668 29.5793 4.5668 29.5793 4.51581 29.5793ZM5.38262 22.4893H5.33163C3.75097 22.5403 2.37426 23.7645 2.1703 25.3457C2.1703 25.4477 2.1703 25.6008 2.1703 25.7028C2.1703 27.029 3.29206 28.1001 4.5668 28.0491C6.14746 27.9981 7.52417 26.7739 7.72813 25.1927C7.72813 25.0397 7.72813 24.9377 7.72813 24.7846C7.72813 24.1726 7.47318 23.5605 7.01428 23.1524C6.55538 22.7444 5.99449 22.4893 5.38262 22.4893Z" fill="#5498FE" stroke="#5498FE" stroke-width="0.51007"/>
<path d="M19.6096 18.9699C17.519 18.9699 15.7854 17.2867 15.7344 15.1444C15.7344 14.9404 15.7344 14.7364 15.7854 14.5833C16.0913 12.237 18.0799 10.4518 20.4254 10.4008C21.4452 10.3498 22.465 10.7578 23.1788 11.4719C23.9436 12.186 24.3516 13.1551 24.4025 14.1753C24.4025 14.3793 24.4025 14.5833 24.3516 14.7874C24.0456 17.1337 22.057 18.9189 19.7115 18.9699C19.6605 18.9699 19.6605 18.9699 19.6096 18.9699ZM17.315 14.7874C17.315 14.8894 17.315 15.0424 17.315 15.1444C17.366 16.4196 18.4368 17.4907 19.7115 17.4397C21.2922 17.3887 22.6689 16.1645 22.8729 14.5833C22.8729 14.4303 22.8729 14.3283 22.8729 14.2263C22.8729 13.6142 22.6179 13.0021 22.159 12.5941C21.7001 12.186 21.0882 11.931 20.4764 11.931C18.8447 11.982 17.519 13.2061 17.315 14.7874Z" fill="#5498FE"/>
<path d="M16.6522 14.6853L17.315 14.7874M17.315 14.7874C17.315 14.8894 17.315 15.0424 17.315 15.1444C17.366 16.4196 18.4368 17.4907 19.7115 17.4397C21.2922 17.3887 22.6689 16.1645 22.8729 14.5833C22.8729 14.4303 22.8729 14.3283 22.8729 14.2263C22.8729 13.6142 22.6179 13.0021 22.159 12.5941C21.7001 12.186 21.0882 11.931 20.4764 11.931C18.8447 11.982 17.519 13.2061 17.315 14.7874ZM19.6096 18.9699C17.519 18.9699 15.7854 17.2867 15.7344 15.1444C15.7344 14.9404 15.7344 14.7364 15.7854 14.5833C16.0913 12.237 18.0799 10.4518 20.4254 10.4008C21.4452 10.3498 22.465 10.7578 23.1788 11.4719C23.9436 12.186 24.3516 13.1551 24.4025 14.1753C24.4025 14.3793 24.4025 14.5833 24.3516 14.7874C24.0456 17.1337 22.057 18.9189 19.7115 18.9699C19.6605 18.9699 19.6605 18.9699 19.6096 18.9699Z" stroke="#5498FE" stroke-width="0.51007"/>
<path d="M34.7014 8.56446C33.6816 8.56446 32.7638 8.1564 31.9989 7.49331C31.2341 6.77921 30.8262 5.81008 30.8262 4.78994C30.8262 4.58591 30.8262 4.38189 30.8772 4.22887C31.1831 1.88255 33.1717 0.0973022 35.5172 0.0462953C37.6587 -0.0047117 39.4433 1.67852 39.4943 3.82081C39.4943 4.02484 39.4943 4.22887 39.4434 4.43289C39.1374 6.77921 37.1488 8.56446 34.8033 8.61546C34.7523 8.56446 34.7014 8.56446 34.7014 8.56446ZM35.5682 1.5255H35.5172C33.9365 1.5765 32.5598 2.80067 32.3558 4.38189C32.3558 4.4839 32.3558 4.63692 32.3558 4.73894C32.3558 5.35102 32.6108 5.9631 33.0697 6.37116C33.5286 6.83022 34.1405 7.03425 34.7523 7.03425C36.333 6.98324 37.7097 5.75907 37.9137 4.17786C37.9137 4.07584 37.9137 3.92282 37.9137 3.82081C37.9137 2.54564 36.8429 1.5255 35.5682 1.5255Z" fill="#5498FE" stroke="#5498FE" stroke-width="0.51007"/>
<path d="M47.9592 15.5524C45.8686 15.5524 44.135 13.8692 44.084 11.7779C44.084 11.5739 44.084 11.3699 44.135 11.1659C44.4409 8.81953 46.4295 7.03429 48.775 6.98328C49.7948 6.93227 50.8146 7.34033 51.5284 8.05443C52.2933 8.76852 52.7012 9.73766 52.7012 10.7578C52.7012 10.9618 52.7012 11.1659 52.6502 11.3699C52.3442 13.7162 50.4067 15.5014 48.0102 15.5524H47.9592ZM45.6137 11.3699C45.6137 11.4719 45.6137 11.6249 45.6137 11.7269C45.6647 13.0021 46.6844 14.0732 48.0102 14.0222C49.6418 13.9712 50.9675 12.7981 51.1715 11.1659C51.1715 11.0638 51.1715 10.9108 51.1715 10.8088C51.1715 10.1967 50.9165 9.58464 50.4576 9.17658C49.9987 8.71752 49.3869 8.51349 48.775 8.51349C47.1433 8.5645 45.8176 9.78866 45.6137 11.3699Z" fill="#5498FE" stroke="#5498FE" stroke-width="0.51007"/>
<path d="M38.3741 5.11311L37.6602 6.46643L45.1008 10.3942L45.8147 9.04093L38.3741 5.11311Z" fill="#5498FE" stroke="#5498FE" stroke-width="0.51007"/>
<path d="M31.6197 5.76429L22.6328 11.9545L23.5003 13.2147L32.4872 7.02457L31.6197 5.76429Z" fill="#5498FE" stroke="#5498FE" stroke-width="0.51007"/>
<path d="M16.4626 16.2823L7.57422 22.525L8.45317 23.7773L17.3416 17.5346L16.4626 16.2823Z" fill="#5498FE" stroke="#5498FE" stroke-width="0.51007"/>
</svg>
