<svg width="43" height="40" viewBox="0 0 43 40" fill="none" xmlns="http://www.w3.org/2000/svg">
<g clip-path="url(#clip0_492_562)">
<path d="M18.4413 39.9851C16.136 39.9851 14.2541 38.1503 14.207 35.845C14.207 35.6097 14.207 35.4215 14.2541 35.1863L14.7716 30.0111L16.183 30.1522L15.6655 35.3275C15.6655 35.4686 15.6185 35.6568 15.6185 35.7979C15.6655 37.3505 16.9358 38.5737 18.4883 38.5737H19.194C21.0759 38.5267 22.6755 37.0682 22.9108 35.1863L23.4283 30.0582L24.8397 30.1993L24.2752 35.3745C23.9458 37.9621 21.7816 39.9381 19.147 40.0322H18.4413C18.4883 39.9851 18.4413 39.9851 18.4413 39.9851Z" fill="#5498FE" stroke="#5498FE" stroke-width="0.470473"/>
<path d="M21.0287 31.2813H18.5353C14.7717 31.2813 11.3844 29.8229 9.03216 27.1882C6.63286 24.5065 5.50377 20.978 5.92718 17.1671L6.2565 13.9679C7.00922 6.25216 13.9249 -0.00512695 21.6403 -0.00512695H24.1807C27.9443 -0.00512695 31.3316 1.45334 33.6838 4.13504C36.0831 6.81673 37.2122 10.3453 36.7888 14.1561L36.4595 17.4024C35.6597 25.024 28.7441 31.2813 21.0287 31.2813ZM21.6403 1.40629C14.6305 1.40629 8.32648 7.09902 7.62081 14.1091L7.29149 17.3083C6.91513 20.6957 7.90308 23.8479 10.0672 26.2002C12.1842 28.5526 15.1951 29.8699 18.5353 29.8699H21.0287C28.0384 29.8699 34.3425 24.1772 35.0482 17.1671L35.3775 13.9209C35.7538 10.5335 34.7659 7.3813 32.6018 5.02893C30.4848 2.67657 27.4739 1.35924 24.1337 1.35924H21.6403V1.40629Z" fill="#5498FE" stroke="#5498FE" stroke-width="0.470473"/>
<path d="M18.9254 19.6213L17.7832 30.5242L19.187 30.6712L20.3292 19.7684L18.9254 19.6213Z" fill="#5498FE" stroke="#5498FE" stroke-width="0.470473"/>
<path d="M16.7012 20.4134C15.9014 20.4134 15.1016 20.0841 14.4899 19.5195C13.8783 18.9079 13.502 18.1551 13.502 17.3083C13.502 17.1201 13.502 16.979 13.549 16.7908C13.7842 14.8618 15.4309 13.4034 17.3598 13.3563C18.2067 13.3563 19.0065 13.6386 19.6181 14.2502C20.2297 14.8618 20.559 15.6146 20.6061 16.5085C20.6061 16.6967 20.6061 16.8378 20.559 17.026L20.2297 20.4134H16.7482C16.7482 20.4134 16.7482 20.4134 16.7012 20.4134ZM17.4069 14.7207C16.1366 14.7677 15.1016 15.7087 14.9604 16.9319C14.9604 17.026 14.9604 17.1201 14.9604 17.2142C14.9604 17.6847 15.1486 18.1081 15.525 18.4374C15.8543 18.7668 16.3248 18.9079 16.7953 18.9079H19.0065L19.2417 16.7437C19.2417 16.6026 19.2417 16.5085 19.2417 16.4614C19.2417 15.991 19.0535 15.5205 18.6772 15.2382C18.3008 14.9089 17.8774 14.7207 17.4069 14.7207Z" fill="#5498FE" stroke="#5498FE" stroke-width="0.470473"/>
<path d="M21.5042 19.6044L20.3555 30.5061L21.7591 30.654L22.9079 19.7523L21.5042 19.6044Z" fill="#5498FE" stroke="#5498FE" stroke-width="0.470473"/>
<path d="M22.2041 20.4134H21.4043L21.7807 16.7908C22.0159 14.8618 23.6626 13.4034 25.5915 13.3563C25.7797 13.3563 25.9208 13.3563 26.109 13.4034C26.9559 13.4975 27.7086 13.9679 28.2262 14.6266C28.7437 15.2853 28.9789 16.1321 28.8378 16.979C28.6025 18.9079 27.0029 20.3664 25.0269 20.4134H22.2041ZM23.0039 19.002H25.0269C26.2502 18.955 27.2852 18.014 27.4264 16.7908C27.4734 16.3203 27.3793 15.8498 27.097 15.4735C26.8147 15.0971 26.3913 14.8618 25.9208 14.7677C25.8267 14.7677 25.7326 14.7677 25.6386 14.7677C24.4153 14.8148 23.3803 15.7557 23.1921 16.979L23.0039 19.002Z" fill="#5498FE" stroke="#5498FE" stroke-width="0.470473"/>
<path d="M22.2518 19.002H19.6172V20.4134H22.2518V19.002Z" fill="#5498FE" stroke="#5498FE" stroke-width="0.470473"/>
<path d="M4.12977 0.218027L3.07812 1.1593L5.43131 3.78842L6.48296 2.84715L4.12977 0.218027Z" fill="#5498FE" stroke="#5498FE" stroke-width="0.470473"/>
<path d="M4.23431 16.1792H0.517578V17.5906H4.23431V16.1792Z" fill="#5498FE" stroke="#5498FE" stroke-width="0.470473"/>
<path d="M41.4472 16.1792H37.7305V17.5906H41.4472V16.1792Z" fill="#5498FE" stroke="#5498FE" stroke-width="0.470473"/>
<path d="M41.7307 0.170763L38.8008 2.823L39.748 3.86945L42.6779 1.21721L41.7307 0.170763Z" fill="#5498FE" stroke="#5498FE" stroke-width="0.470473"/>
<path d="M37.203 27.5064L36.1504 28.4465L38.5007 31.0782L39.5533 30.138L37.203 27.5064Z" fill="#5498FE" stroke="#5498FE" stroke-width="0.470473"/>
<path d="M2.91867 27.461L-0.0117188 30.1124L0.935202 31.159L3.86559 28.5076L2.91867 27.461Z" fill="#5498FE" stroke="#5498FE" stroke-width="0.470473"/>
<path d="M23.3337 33.7278H14.8652V35.1392H23.3337V33.7278Z" fill="#5498FE" stroke="#5498FE" stroke-width="0.470473"/>
</g>
<defs>
<clipPath id="clip0_492_562">
<rect width="42.67" height="40" fill="white" transform="translate(0 -0.0100098)"/>
</clipPath>
</defs>
</svg>
