<svg width="38" height="40" viewBox="0 0 38 40" fill="none" xmlns="http://www.w3.org/2000/svg">
<g clip-path="url(#clip0_492_643)">
<path d="M18.9674 25.4429C18.3309 25.455 17.6994 25.3297 17.1157 25.0754C16.5321 24.8211 16.0102 24.4439 15.5855 23.9694C15.1609 23.4949 14.8436 22.9343 14.6552 22.326C14.4669 21.7176 14.4119 21.0757 14.4941 20.4442C14.6561 19.1225 15.2889 17.9036 16.2764 17.0108C17.2639 16.118 18.54 15.6113 19.8706 15.5834C20.5066 15.5714 21.1378 15.6966 21.721 15.9506C22.3043 16.2046 22.826 16.5814 23.2505 17.0554C23.675 17.5293 23.9925 18.0893 24.1812 18.6971C24.3699 19.3048 24.4254 19.9462 24.344 20.5774C24.1801 21.8987 23.5469 23.1171 22.5599 24.0103C21.5729 24.9035 20.2979 25.4119 18.9674 25.4429ZM19.8706 16.8486C18.8507 16.8717 17.8731 17.2611 17.1164 17.9457C16.3596 18.6303 15.8743 19.5644 15.7491 20.5774C15.6922 21.0355 15.7331 21.5004 15.8692 21.9415C16.0052 22.3826 16.2332 22.7898 16.5382 23.1362C16.8464 23.4719 17.2222 23.7384 17.641 23.9179C18.0598 24.0975 18.5119 24.1861 18.9674 24.1777C19.9876 24.1543 20.9651 23.7641 21.7212 23.0784C22.4772 22.3928 22.9611 21.4576 23.0842 20.4442C23.1426 19.9861 23.1024 19.5207 22.9663 19.0794C22.8302 18.6381 22.6014 18.231 22.2951 17.8854C21.9876 17.5504 21.6124 17.2847 21.1944 17.1059C20.7764 16.9272 20.3251 16.8394 19.8706 16.8486Z" fill="#5498FE" stroke="#5498FE" stroke-width="0.475612"/>
<path d="M24.2462 4.81419L23.584 5.89197L32.9108 11.6281L33.573 10.5503L24.2462 4.81419Z" fill="#5498FE" stroke="#5498FE" stroke-width="0.475612"/>
<path d="M33.7712 14.1477L32.6445 25.307L33.897 25.4336L35.0237 14.2742L33.7712 14.1477Z" fill="#5498FE" stroke="#5498FE" stroke-width="0.473252"/>
<path d="M29.5668 30.1389L19.123 35.8334L19.7282 36.9442L30.172 31.2497L29.5668 30.1389Z" fill="#5498FE" stroke="#5498FE" stroke-width="0.475612"/>
<path d="M6.87706 29.9877L6.21484 31.0654L15.6105 36.8439L16.2727 35.7661L6.87706 29.9877Z" fill="#5498FE" stroke="#5498FE" stroke-width="0.475612"/>
<path d="M4.87655 14.1464L3.71875 25.1675L4.97694 25.2998L6.13474 14.2787L4.87655 14.1464Z" fill="#5498FE" stroke="#5498FE" stroke-width="0.475612"/>
<path d="M17.6687 4.86351L7.26562 10.5334L7.87055 11.6444L18.2736 5.97448L17.6687 4.86351Z" fill="#5498FE" stroke="#5498FE" stroke-width="0.475612"/>
<path d="M15.3299 22.238L6.84375 26.8651L7.44887 27.976L15.935 23.3489L15.3299 22.238Z" fill="#5498FE" stroke="#5498FE" stroke-width="0.475612"/>
<path d="M22.7989 22.1045L22.1367 23.1823L29.795 27.8922L30.4572 26.8144L22.7989 22.1045Z" fill="#5498FE" stroke="#5498FE" stroke-width="0.475612"/>
<path d="M34.6635 14.8558C34.315 14.8612 33.9694 14.7917 33.65 14.652C33.3307 14.5122 33.045 14.3055 32.8125 14.0458C32.5799 13.786 32.4058 13.4793 32.3019 13.1464C32.1981 12.8135 32.1669 12.4622 32.2105 12.1162C32.2971 11.4074 32.6359 10.7534 33.1649 10.2739C33.6939 9.79446 34.3778 9.52155 35.0914 9.50512C35.4411 9.49818 35.7883 9.56675 36.1092 9.70616C36.43 9.84558 36.7171 10.0526 36.9508 10.313C37.1845 10.5735 37.3593 10.8812 37.4634 11.2154C37.5675 11.5496 37.5983 11.9022 37.5538 12.2494C37.4669 12.9594 37.1266 13.6141 36.5955 14.0929C36.0644 14.5718 35.3783 14.8427 34.6635 14.8558ZM35.0914 10.775C34.6901 10.7894 34.3068 10.9452 34.0092 11.215C33.7117 11.4849 33.5191 11.8512 33.4655 12.2494C33.4448 12.4194 33.46 12.5919 33.5099 12.7557C33.5598 12.9195 33.6435 13.0711 33.7555 13.2006C33.8711 13.3254 34.0117 13.4242 34.1682 13.4906C34.3247 13.557 34.4935 13.5895 34.6635 13.5859C35.0648 13.5715 35.4481 13.4156 35.7456 13.1458C36.0432 12.876 36.2357 12.5096 36.2893 12.1115C36.3103 11.9414 36.2953 11.7689 36.2454 11.605C36.1954 11.4411 36.1116 11.2896 35.9993 11.1602C35.8838 11.0355 35.7431 10.9366 35.5866 10.8702C35.4301 10.8038 35.2613 10.7714 35.0914 10.775Z" fill="#5498FE" stroke="#5498FE" stroke-width="0.475612"/>
<path d="M17.4161 39.9871C17.0674 39.9934 16.7214 39.9244 16.4016 39.7849C16.0819 39.6455 15.7959 39.4387 15.5632 39.1788C15.3305 38.9189 15.1564 38.6119 15.0529 38.2786C14.9493 37.9454 14.9187 37.5937 14.9631 37.2476C15.0508 36.5396 15.3901 35.8868 15.9189 35.4083C16.4478 34.9298 17.1311 34.6575 17.844 34.6413C18.1916 34.6362 18.5363 34.7053 18.8551 34.8438C19.174 34.9824 19.4597 35.1874 19.6932 35.445C19.9252 35.7066 20.0993 36.0143 20.2041 36.3479C20.309 36.6815 20.3422 37.0334 20.3017 37.3808C20.2139 38.0896 19.874 38.743 19.3441 39.2216C18.8142 39.7002 18.1298 39.972 17.4161 39.9871ZM17.844 35.9064C17.4432 35.9209 17.0605 36.0769 16.7638 36.3468C16.4671 36.6167 16.2754 36.983 16.2229 37.3808C16.2007 37.5508 16.2151 37.7237 16.2651 37.8878C16.3151 38.0518 16.3996 38.2033 16.5129 38.332C16.6269 38.4574 16.7666 38.5567 16.9225 38.6232C17.0784 38.6897 17.2467 38.7217 17.4161 38.7172C17.8174 38.7029 18.2007 38.547 18.4982 38.2772C18.7958 38.0074 18.9883 37.641 19.0419 37.2428C19.0671 37.0731 19.0547 36.8998 19.0055 36.7353C18.9563 36.5709 18.8715 36.4193 18.7572 36.2913C18.6429 36.1633 18.5018 36.062 18.344 35.9947C18.1861 35.9273 18.0154 35.8956 17.844 35.9016V35.9064Z" fill="#5498FE" stroke="#5498FE" stroke-width="0.475612"/>
<path d="M5.58039 14.8558C5.23279 14.8609 4.88809 14.7918 4.56923 14.6532C4.25038 14.5146 3.96468 14.3097 3.73115 14.052C3.49867 13.7908 3.32423 13.4832 3.21934 13.1495C3.11445 12.8158 3.0815 12.4637 3.12266 12.1163C3.2094 11.4066 3.54886 10.752 4.07884 10.2725C4.60882 9.79289 5.29381 9.52049 6.00824 9.50518C6.35676 9.49972 6.70238 9.56921 7.02173 9.70895C7.34108 9.8487 7.62671 10.0554 7.85928 10.3152C8.09186 10.5749 8.26596 10.8816 8.36981 11.2145C8.47365 11.5474 8.50483 11.8987 8.46121 12.2447C8.37461 12.9536 8.03582 13.6075 7.50683 14.087C6.97784 14.5665 6.294 14.8394 5.58039 14.8558ZM6.00824 10.7751C5.60694 10.7894 5.22364 10.9453 4.92611 11.2151C4.62859 11.4849 4.43601 11.8513 4.38243 12.2495C4.36173 12.4195 4.37684 12.592 4.42679 12.7558C4.47673 12.9196 4.5604 13.0712 4.67241 13.2007C4.78795 13.3255 4.92861 13.4243 5.08512 13.4907C5.24163 13.5571 5.41043 13.5896 5.58039 13.5859C5.98115 13.5714 6.36383 13.4154 6.66056 13.1455C6.9573 12.8756 7.14892 12.5093 7.20145 12.1115C7.22658 11.9421 7.21424 11.7693 7.1653 11.6052C7.11636 11.4411 7.03202 11.2898 6.91822 11.1619C6.80442 11.0339 6.66395 10.9326 6.50671 10.8649C6.34948 10.7973 6.17932 10.765 6.00824 10.7703V10.7751Z" fill="#5498FE" stroke="#5498FE" stroke-width="0.475612"/>
<path d="M20.8026 7.92614H20.5982C20.1182 7.90844 19.6465 7.7945 19.2113 7.59107C18.776 7.38764 18.3861 7.09887 18.0644 6.74187C16.6858 5.18186 16.9283 2.66587 18.6254 1.1344C19.4646 0.361131 20.5752 -0.0491329 21.7154 -0.00706662C22.1949 0.0121388 22.6658 0.127245 23.1001 0.331461C23.5345 0.535677 23.9236 0.824865 24.2444 1.18196C25.6373 2.73721 25.3948 5.2532 23.6977 6.78943C22.9052 7.51157 21.8745 7.91625 20.8026 7.92614ZM21.5062 1.26757C20.7588 1.28031 20.0418 1.56621 19.4906 2.07136C18.3116 3.13673 18.112 4.85369 19.0437 5.87625C19.4619 6.33691 20.0438 6.61524 20.6648 6.6515C21.0633 6.6658 21.4607 6.60133 21.8343 6.46178C22.2079 6.32222 22.5504 6.11032 22.842 5.8382C24.021 4.77283 24.2206 3.05587 23.2889 2.03331C23.0798 1.80373 22.8271 1.61817 22.5455 1.48751C22.2639 1.35684 21.959 1.28369 21.6488 1.27233L21.5062 1.26757Z" fill="#5498FE" stroke="#5498FE" stroke-width="0.475612"/>
<path d="M3.62621 32.7055H3.4218C2.94442 32.6846 2.47593 32.5692 2.04345 32.3659C1.61097 32.1626 1.22309 31.8755 0.902269 31.5212C-0.476341 29.9565 -0.248157 27.4405 1.42519 25.909C2.26767 25.1389 3.37965 24.7322 4.51993 24.777C4.99641 24.7966 5.4642 24.911 5.89598 25.1136C6.32776 25.3161 6.71488 25.6027 7.03471 25.9566C8.43233 27.5166 8.18989 30.0325 6.49277 31.564C5.70923 32.2829 4.68922 32.6891 3.62621 32.7055ZM4.32978 26.0469C3.57495 26.0598 2.85106 26.3492 2.29514 26.8602C1.11619 27.9303 0.916531 29.6473 1.84828 30.6889C2.05734 30.9185 2.31007 31.104 2.59169 31.2347C2.8733 31.3654 3.17814 31.4385 3.48835 31.4499C4.2925 31.4795 5.07554 31.1887 5.66561 30.6413C6.84456 29.5712 7.04422 27.859 6.11247 26.8364C5.90365 26.6062 5.65106 26.4199 5.36946 26.2884C5.08787 26.1569 4.7829 26.0829 4.47239 26.0707L4.32978 26.0469Z" fill="#5498FE" stroke="#5498FE" stroke-width="0.475612"/>
<path d="M32.7106 32.7055H32.5062C32.0288 32.6846 31.5603 32.5692 31.1279 32.3659C30.6954 32.1626 30.3075 31.8756 29.9867 31.5213C28.5938 29.9613 28.8362 27.4453 30.5286 25.9138C31.3714 25.1442 32.4832 24.7375 33.6234 24.7818C34.0979 24.8021 34.5636 24.9163 34.9937 25.118C35.4237 25.3197 35.8095 25.6047 36.1286 25.9566C37.5262 27.5166 37.2838 30.0326 35.5867 31.5641C34.8007 32.2851 33.7769 32.6915 32.7106 32.7055ZM33.4142 26.047C32.6596 26.0548 31.934 26.3391 31.3748 26.846C30.1958 27.9161 29.9962 29.6331 30.9279 30.6747C31.137 30.9043 31.3897 31.0898 31.6713 31.2205C31.9529 31.3511 32.2578 31.4243 32.568 31.4357C33.372 31.4643 34.1546 31.1736 34.7453 30.6271C35.9242 29.557 36.1239 27.8448 35.1921 26.8222C34.9833 26.592 34.7307 26.4057 34.4491 26.2742C34.1675 26.1427 33.8626 26.0687 33.552 26.0565L33.4142 26.047Z" fill="#5498FE" stroke="#5498FE" stroke-width="0.475612"/>
<path d="M20.2079 7.14125L19.2559 16.2041L20.5141 16.3364L21.4661 7.27355L20.2079 7.14125Z" fill="#5498FE" stroke="#5498FE" stroke-width="0.475612"/>
</g>
<defs>
<clipPath id="clip0_492_643">
<rect width="37.56" height="40" fill="white" transform="translate(0 -0.0100098)"/>
</clipPath>
</defs>
</svg>
