<svg width="46" height="40" viewBox="0 0 46 40" fill="none" xmlns="http://www.w3.org/2000/svg">
<g clip-path="url(#clip0_492_524)">
<path d="M34.0593 17.0752H31.9062V15.9613H34.0593C37.1404 15.9613 39.7018 13.6592 40.0359 10.5774L40.3329 7.94116L41.4465 8.05255L41.1495 10.6888C40.7783 14.3276 37.7343 17.0752 34.0593 17.0752Z" fill="#5498FE" stroke="#5498FE" stroke-width="0.371304"/>
<path d="M40.8906 8.57235C38.5148 8.57235 36.6216 6.64157 36.6216 4.30236C36.5845 1.92602 38.5148 -0.00476074 40.8906 -0.00476074C43.2664 -0.00476074 45.1596 1.92602 45.1596 4.26523C45.1596 6.64157 43.2293 8.57235 40.8906 8.57235ZM40.8906 1.10915C39.1459 1.10915 37.7353 2.5201 37.7353 4.26523C37.7353 6.01036 39.1459 7.42131 40.8906 7.42131C42.6353 7.42131 44.0459 6.01036 44.0459 4.26523C44.0459 2.5201 42.6353 1.10915 40.8906 1.10915Z" fill="#5498FE" stroke="#5498FE" stroke-width="0.371304"/>
<path d="M33.2807 39.9847C30.9049 39.9847 29.0117 38.0539 29.0117 35.7147C29.0117 33.3755 30.942 31.4447 33.2807 31.4447C35.6194 31.4447 37.5497 33.3755 37.5497 35.7147C37.5497 38.0539 35.6565 39.9847 33.2807 39.9847ZM33.2807 32.5215C31.536 32.5215 30.1254 33.9324 30.1254 35.6776C30.1254 37.4227 31.536 38.8336 33.2807 38.8336C35.0254 38.8336 36.436 37.4227 36.436 35.6776C36.436 33.9324 35.0254 32.5215 33.2807 32.5215Z" fill="#5498FE" stroke="#5498FE" stroke-width="0.371304"/>
<path d="M4.54828 21.0853C2.20962 21.0853 0.279297 19.1545 0.279297 16.7782C0.279297 14.4018 2.20962 12.5082 4.54828 12.5082C6.92406 12.5082 8.81726 14.439 8.81726 16.7782C8.81726 19.1174 6.92406 21.0853 4.54828 21.0853ZM4.54828 13.6221C2.80357 13.6221 1.39294 15.033 1.39294 16.7782C1.39294 18.5233 2.80357 19.9342 4.54828 19.9342C6.29299 19.9342 7.70362 18.5233 7.70362 16.7782C7.70362 15.033 6.29299 13.6221 4.54828 13.6221Z" fill="#5498FE" stroke="#5498FE" stroke-width="0.371304"/>
<path d="M29.6416 36.2345L27.006 35.9746C23.3681 35.6033 20.6211 32.5586 20.6211 28.8827V26.7291H21.7347V28.8827C21.7347 31.9645 24.0734 34.5265 27.1174 34.8607L29.753 35.1206L29.6416 36.2345Z" fill="#5498FE" stroke="#5498FE" stroke-width="0.371304"/>
<path d="M25.1137 27.0633H11.8613L13.2719 13.8449C13.6803 10.5774 16.4273 8.05253 19.7311 7.97827H32.9464L31.5729 21.2338C31.1646 24.4641 28.3804 26.989 25.1137 27.0633ZM13.1235 25.9494H25.1137C27.8236 25.8751 30.1252 23.7958 30.4964 21.1224L31.7585 9.12931H19.7311C17.0212 9.20357 14.7197 11.2829 14.3856 13.9934L13.1235 25.9494Z" fill="#5498FE" stroke="#5498FE" stroke-width="0.371304"/>
<path d="M8.25977 16.147H13.4939V17.2609H8.25977V16.147Z" fill="#5498FE" stroke="#5498FE" stroke-width="0.371304"/>
</g>
<defs>
<clipPath id="clip0_492_524">
<rect width="44.88" height="40" fill="white" transform="translate(0.279297 -0.0100098)"/>
</clipPath>
</defs>
</svg>
