<svg width="41" height="40" viewBox="0 0 41 40" fill="none" xmlns="http://www.w3.org/2000/svg">
<path d="M30.9256 23.8253C36.6931 17.3453 39.1206 12.1153 40.0281 8.28028C40.5531 6.06278 40.5631 4.33028 40.4281 3.11778C40.3759 2.64215 40.2856 2.17147 40.1581 1.71028C40.1037 1.5152 40.0386 1.32325 39.9631 1.13528C39.7806 0.725284 39.5431 0.547784 39.0831 0.395284C38.9512 0.353079 38.8178 0.315555 38.6831 0.282784C38.2147 0.169219 37.7384 0.0914943 37.2581 0.0502836C36.0331 -0.0597164 34.2831 -0.0247164 32.0581 0.520284C28.2181 1.45528 23.0131 3.87778 16.6556 9.53028L10.6556 10.1253H10.6406C9.19896 10.286 7.8551 10.9333 6.83064 11.9603L0.875639 17.9253C0.687026 18.1152 0.562707 18.3595 0.520171 18.6238C0.477636 18.8881 0.519024 19.159 0.638513 19.3986C0.758003 19.6381 0.949581 19.8341 1.1863 19.9591C1.42301 20.0841 1.69295 20.1317 1.95814 20.0953L6.69814 19.4178C7.39814 19.3178 8.17814 19.4503 9.08564 19.7478C9.66564 19.9378 10.1781 20.1478 10.7231 20.3678L11.2306 20.5753C11.7206 22.6153 12.8806 24.5253 14.4181 26.0628C15.9506 27.5978 17.8581 28.7628 19.8956 29.2553L20.1006 29.7603C20.3231 30.3053 20.5331 30.8203 20.7231 31.4028C21.0181 32.3103 21.1531 33.0928 21.0531 33.7928L20.3756 38.5428C20.3399 38.8075 20.3878 39.0767 20.5127 39.3128C20.6376 39.5489 20.8333 39.74 21.0722 39.8593C21.3112 39.9786 21.5814 40.0202 21.8452 39.9783C22.109 39.9363 22.353 39.8129 22.5431 39.6253L28.4981 33.6603C29.5231 32.6353 30.1681 31.2878 30.3281 29.8453L30.9256 23.8253ZM31.2006 14.5778C29.2081 16.5778 26.3756 16.9803 24.8806 15.4828C23.3856 13.9828 23.7906 11.1503 25.7831 9.15278C27.7781 7.15528 30.6081 6.75278 32.1031 8.25028C33.6006 9.74778 33.1956 12.5803 31.2031 14.5778H31.2006Z" fill="black"/>
</svg>
