<svg width="40" height="40" viewBox="0 0 40 40" fill="none" xmlns="http://www.w3.org/2000/svg">
<path d="M0 12.4623C0.000610391 15.3553 1.00429 18.1586 2.84002 20.3946C4.67576 22.6305 7.22998 24.1609 10.0675 24.7248C10.2291 22.9336 10.6888 21.182 11.4275 19.5423C9.2375 18.8023 7.83 17.1223 7.5 14.7373H6.25V13.6723H7.415V12.5873C7.415 12.4723 7.415 12.3548 7.425 12.2498H6.25V11.1823H7.5275C8.09 8.06226 10.5325 6.21226 14.2025 6.21226C14.9925 6.21226 15.6775 6.28976 16.25 6.42476V8.25726C15.5813 8.1085 14.8974 8.03968 14.2125 8.05226C11.915 8.05226 10.3675 9.21726 9.8775 11.1823H14.67V12.2498H9.72C9.7125 12.3648 9.7125 12.4923 9.7125 12.6173V13.6723H14.67V14.7398H9.825C10.12 16.2448 10.995 17.3148 12.3375 17.8123C13.6538 15.6322 15.4642 13.792 17.6224 12.4401C19.7807 11.0883 22.2265 10.2626 24.7625 10.0298C24.1494 6.99354 22.4312 4.29293 19.9408 2.45105C17.4504 0.609164 14.3651 -0.242891 11.2824 0.0599294C8.19973 0.36275 5.33916 1.79889 3.25478 4.09017C1.17041 6.38145 0.0105924 9.36477 0 12.4623ZM40 26.2123C40 29.859 38.5513 33.3564 35.9727 35.935C33.3941 38.5136 29.8967 39.9623 26.25 39.9623C22.6033 39.9623 19.1059 38.5136 16.5273 35.935C13.9487 33.3564 12.5 29.859 12.5 26.2123C12.5 22.5655 13.9487 19.0682 16.5273 16.4895C19.1059 13.9109 22.6033 12.4623 26.25 12.4623C29.8967 12.4623 33.3941 13.9109 35.9727 16.4895C38.5513 19.0682 40 22.5655 40 26.2123ZM20.625 29.5173C20.7975 31.6048 22.49 33.2298 25.535 33.4223V34.9623H26.885V33.4123C30.0325 33.1973 31.875 31.5623 31.875 29.1873C31.875 27.0248 30.4675 25.9123 27.95 25.3373L26.885 25.0873V20.8973C28.235 21.0473 29.095 21.7648 29.3 22.7598H31.67C31.495 20.7498 29.7225 19.1773 26.885 19.0048V17.4623H25.535V19.0348C22.845 19.2923 21.015 20.8648 21.015 23.0898C21.015 25.0573 22.375 26.3098 24.64 26.8223L25.535 27.0348V31.4848C24.15 31.2848 23.235 30.5448 23.0275 29.5173H20.625ZM25.525 24.7798C24.195 24.4798 23.475 23.8698 23.475 22.9498C23.475 21.9248 24.2525 21.1523 25.535 20.9273V24.7773H25.5225L25.525 24.7798ZM27.08 27.3898C28.6925 27.7523 29.4375 28.3398 29.4375 29.3798C29.4375 30.5648 28.5125 31.3798 26.8875 31.5298V27.3448L27.08 27.3898Z" fill="black"/>
</svg>
