<svg width="35" height="40" viewBox="0 0 35 40" fill="none" xmlns="http://www.w3.org/2000/svg">
<path fill-rule="evenodd" clip-rule="evenodd" d="M17.5 0C15.775 0 12.8925 0.6625 10.18 1.4C7.40501 2.15 4.60751 3.0375 2.96251 3.575C2.27474 3.80213 1.66499 4.21866 1.20331 4.77675C0.741621 5.33484 0.446732 6.01185 0.352513 6.73C-1.13749 17.9225 2.32001 26.2175 6.51501 31.705C8.29397 34.0524 10.4151 36.1196 12.8075 37.8375C13.7725 38.52 14.6675 39.0425 15.4275 39.4C16.1275 39.73 16.88 40 17.5 40C18.12 40 18.87 39.73 19.5725 39.4C20.4887 38.9547 21.3652 38.4319 22.1925 37.8375C24.585 36.1196 26.7061 34.0525 28.485 31.705C32.68 26.2175 36.1375 17.9225 34.6475 6.73C34.5535 6.0115 34.2587 5.3341 33.797 4.77558C33.3353 4.21706 32.7255 3.80007 32.0375 3.5725C29.6495 2.78953 27.243 2.06432 24.82 1.3975C22.1075 0.665 19.225 0 17.5 0ZM22.865 12.865C23.0997 12.6303 23.4181 12.4984 23.75 12.4984C24.082 12.4984 24.4003 12.6303 24.635 12.865C24.8697 13.0997 25.0016 13.4181 25.0016 13.75C25.0016 14.0819 24.8697 14.4003 24.635 14.635L17.135 22.135C17.0189 22.2514 16.881 22.3438 16.7291 22.4068C16.5772 22.4698 16.4144 22.5022 16.25 22.5022C16.0856 22.5022 15.9228 22.4698 15.7709 22.4068C15.6191 22.3438 15.4811 22.2514 15.365 22.135L11.615 18.385C11.4988 18.2688 11.4066 18.1308 11.3437 17.979C11.2808 17.8271 11.2484 17.6644 11.2484 17.5C11.2484 17.3356 11.2808 17.1729 11.3437 17.021C11.4066 16.8692 11.4988 16.7312 11.615 16.615C11.7312 16.4988 11.8692 16.4066 12.0211 16.3437C12.1729 16.2808 12.3357 16.2484 12.5 16.2484C12.6644 16.2484 12.8271 16.2808 12.979 16.3437C13.1308 16.4066 13.2688 16.4988 13.385 16.615L16.25 19.4825L22.865 12.865Z" fill="black"/>
</svg>
