<svg width="41" height="30" viewBox="0 0 41 30" fill="none" xmlns="http://www.w3.org/2000/svg">
<path d="M18 30C18 30 15.5 30 15.5 27.5C15.5 25 18 17.5 28 17.5C38 17.5 40.5 25 40.5 27.5C40.5 30 38 30 38 30H18ZM28 15C29.9891 15 31.8968 14.2098 33.3033 12.8033C34.7098 11.3968 35.5 9.48912 35.5 7.5C35.5 5.51088 34.7098 3.60322 33.3033 2.1967C31.8968 0.790177 29.9891 0 28 0C26.0109 0 24.1032 0.790177 22.6967 2.1967C21.2902 3.60322 20.5 5.51088 20.5 7.5C20.5 9.48912 21.2902 11.3968 22.6967 12.8033C24.1032 14.2098 26.0109 15 28 15ZM13.54 30C13.1694 29.2195 12.9846 28.3638 13 27.5C13 24.1125 14.7 20.625 17.84 18.2C16.2727 17.7171 14.6399 17.4809 13 17.5C3 17.5 0.5 25 0.5 27.5C0.5 30 3 30 3 30H13.54ZM11.75 15C13.4076 15 14.9973 14.3415 16.1694 13.1694C17.3415 11.9973 18 10.4076 18 8.75C18 7.0924 17.3415 5.50269 16.1694 4.33058C14.9973 3.15848 13.4076 2.5 11.75 2.5C10.0924 2.5 8.50268 3.15848 7.33058 4.33058C6.15848 5.50269 5.5 7.0924 5.5 8.75C5.5 10.4076 6.15848 11.9973 7.33058 13.1694C8.50268 14.3415 10.0924 15 11.75 15Z" fill="black"/>
</svg>
