<svg width="33" height="32" viewBox="0 0 33 32" fill="none" xmlns="http://www.w3.org/2000/svg">
<g clip-path="url(#clip0_794_1470)">
<path d="M4.51465 0C3.45378 0 2.43637 0.421427 1.68622 1.17157C0.936076 1.92172 0.514648 2.93913 0.514648 4L0.514648 28C0.514648 29.0609 0.936076 30.0783 1.68622 30.8284C2.43637 31.5786 3.45378 32 4.51465 32H28.5146C29.5755 32 30.5929 31.5786 31.3431 30.8284C32.0932 30.0783 32.5146 29.0609 32.5146 28V4C32.5146 2.93913 32.0932 1.92172 31.3431 1.17157C30.5929 0.421427 29.5755 0 28.5146 0L4.51465 0ZM11.5066 12.066C11.4422 12.0669 11.3782 12.0546 11.3187 12.0299C11.2591 12.0052 11.2052 11.9686 11.1603 11.9224C11.1153 11.8761 11.0803 11.8212 11.0573 11.761C11.0344 11.7007 11.0239 11.6364 11.0266 11.572C11.2146 8.182 13.9886 7 16.5246 7C19.3166 7 21.8686 8.46 21.8686 11.48C21.8686 13.64 20.5986 14.668 19.3806 15.594C17.9066 16.712 17.3606 17.13 17.3606 18.566V18.776C17.3606 18.9086 17.308 19.0358 17.2142 19.1296C17.1204 19.2233 16.9933 19.276 16.8606 19.276H15.2406C15.1094 19.276 14.9834 19.2244 14.8899 19.1324C14.7964 19.0403 14.7427 18.9152 14.7406 18.784L14.7326 18.35C14.6566 16.496 15.7226 15.354 17.0686 14.376C18.2486 13.488 18.9986 12.904 18.9986 11.634C18.9986 9.984 17.7426 9.298 16.3706 9.298C14.7646 9.298 13.8646 10.254 13.6866 11.566C13.6506 11.84 13.4306 12.066 13.1546 12.066H11.5066ZM16.1566 24.952C14.9886 24.952 14.1386 24.164 14.1386 23.098C14.1386 21.994 14.9886 21.218 16.1586 21.218C17.3766 21.218 18.2146 21.994 18.2146 23.098C18.2146 24.164 17.3746 24.952 16.1566 24.952Z" fill="#5498FE"/>
</g>
<defs>
<clipPath id="clip0_794_1470">
<rect width="32" height="32" fill="white" transform="translate(0.514648)"/>
</clipPath>
</defs>
</svg>
