<svg width="41" height="40" viewBox="0 0 41 40" fill="none" xmlns="http://www.w3.org/2000/svg">
<path d="M0.611328 12.4623C0.611939 15.3553 1.61561 18.1586 3.45135 20.3946C5.28709 22.6305 7.84131 24.1609 10.6788 24.7248C10.8404 22.9336 11.3001 21.182 12.0388 19.5423C9.84883 18.8023 8.44133 17.1223 8.11133 14.7373H6.86133V13.6723H8.02633V12.5873C8.02633 12.4723 8.02633 12.3548 8.03633 12.2498H6.86133V11.1823H8.13883C8.70133 8.06226 11.1438 6.21226 14.8138 6.21226C15.6038 6.21226 16.2888 6.28976 16.8613 6.42476V8.25726C16.1927 8.1085 15.5087 8.03968 14.8238 8.05226C12.5263 8.05226 10.9788 9.21726 10.4888 11.1823H15.2813V12.2498H10.3313C10.3238 12.3648 10.3238 12.4923 10.3238 12.6173V13.6723H15.2813V14.7398H10.4363C10.7313 16.2448 11.6063 17.3148 12.9488 17.8123C14.2652 15.6322 16.0755 13.792 18.2338 12.4401C20.392 11.0883 22.8378 10.2626 25.3738 10.0298C24.7607 6.99354 23.0425 4.29293 20.5521 2.45105C18.0618 0.609164 14.9764 -0.242891 11.8937 0.0599294C8.81106 0.36275 5.95048 1.79889 3.86611 4.09017C1.78174 6.38145 0.621921 9.36477 0.611328 12.4623ZM40.6113 26.2123C40.6113 29.859 39.1627 33.3564 36.584 35.935C34.0054 38.5136 30.5081 39.9623 26.8613 39.9623C23.2146 39.9623 19.7172 38.5136 17.1386 35.935C14.56 33.3564 13.1113 29.859 13.1113 26.2123C13.1113 22.5655 14.56 19.0682 17.1386 16.4895C19.7172 13.9109 23.2146 12.4623 26.8613 12.4623C30.5081 12.4623 34.0054 13.9109 36.584 16.4895C39.1627 19.0682 40.6113 22.5655 40.6113 26.2123ZM21.2363 29.5173C21.4088 31.6048 23.1013 33.2298 26.1463 33.4223V34.9623H27.4963V33.4123C30.6438 33.1973 32.4863 31.5623 32.4863 29.1873C32.4863 27.0248 31.0788 25.9123 28.5613 25.3373L27.4963 25.0873V20.8973C28.8463 21.0473 29.7063 21.7648 29.9113 22.7598H32.2813C32.1063 20.7498 30.3338 19.1773 27.4963 19.0048V17.4623H26.1463V19.0348C23.4563 19.2923 21.6263 20.8648 21.6263 23.0898C21.6263 25.0573 22.9863 26.3098 25.2513 26.8223L26.1463 27.0348V31.4848C24.7613 31.2848 23.8463 30.5448 23.6388 29.5173H21.2363ZM26.1363 24.7798C24.8063 24.4798 24.0863 23.8698 24.0863 22.9498C24.0863 21.9248 24.8638 21.1523 26.1463 20.9273V24.7773H26.1338L26.1363 24.7798ZM27.6913 27.3898C29.3038 27.7523 30.0488 28.3398 30.0488 29.3798C30.0488 30.5648 29.1238 31.3798 27.4988 31.5298V27.3448L27.6913 27.3898Z" fill="white"/>
</svg>
