<svg width="41" height="40" viewBox="0 0 41 40" fill="none" xmlns="http://www.w3.org/2000/svg">
<g clip-path="url(#clip0_579_2325)">
<path d="M30.7518 23.825C36.5193 17.345 38.9468 12.115 39.8543 8.28004C40.3793 6.06254 40.3893 4.33004 40.2543 3.11754C40.2021 2.64191 40.1118 2.17123 39.9843 1.71004C39.9299 1.51496 39.8648 1.323 39.7893 1.13504C39.6068 0.725039 39.3693 0.547539 38.9093 0.395039C38.7773 0.352835 38.6439 0.315311 38.5093 0.282539C38.0409 0.168975 37.5645 0.0912501 37.0843 0.0500395C35.8593 -0.0599605 34.1093 -0.0249605 31.8843 0.520039C28.0443 1.45504 22.8393 3.87754 16.4818 9.53004L10.4818 10.125H10.4668C9.02513 10.2858 7.68127 10.933 6.65681 11.96L0.701811 17.925C0.513198 18.115 0.388879 18.3593 0.346343 18.6236C0.303807 18.8878 0.345196 19.1588 0.464685 19.3983C0.584175 19.6379 0.775753 19.8339 1.01247 19.9589C1.24918 20.0839 1.51912 20.1315 1.78431 20.095L6.52431 19.4175C7.22431 19.3175 8.00431 19.45 8.91181 19.7475C9.49181 19.9375 10.0043 20.1475 10.5493 20.3675L11.0568 20.575C11.5468 22.615 12.7068 24.525 14.2443 26.0625C15.7768 27.5975 17.6843 28.7625 19.7218 29.255L19.9268 29.76C20.1493 30.305 20.3593 30.82 20.5493 31.4025C20.8443 32.31 20.9793 33.0925 20.8793 33.7925L20.2018 38.5425C20.1661 38.8072 20.214 39.0765 20.3389 39.3125C20.4638 39.5486 20.6594 39.7397 20.8984 39.859C21.1373 39.9784 21.4076 40.02 21.6714 39.978C21.9352 39.9361 22.1792 39.8126 22.3693 39.625L28.3243 33.66C29.3493 32.635 29.9943 31.2875 30.1543 29.845L30.7518 23.825ZM31.0268 14.5775C29.0343 16.5775 26.2018 16.98 24.7068 15.4825C23.2118 13.9825 23.6168 11.15 25.6093 9.15254C27.6043 7.15504 30.4343 6.75254 31.9293 8.25004C33.4268 9.74754 33.0218 12.58 31.0293 14.5775H31.0268Z" fill="white"/>
<path d="M13.3392 26.9675C14.6669 28.3112 16.1868 29.4503 17.8492 30.3475C15.0542 32.865 5.5267 35.4175 5.2142 35.105C4.8992 34.7875 7.05669 24.6325 9.8117 22.155C10.6767 23.88 11.9042 25.53 13.3392 26.9675Z" fill="white"/>
</g>
<defs>
<clipPath id="clip0_579_2325">
<rect width="40" height="40" fill="white" transform="translate(0.326172)"/>
</clipPath>
</defs>
</svg>
