<svg width="41" height="40" viewBox="0 0 41 40" fill="none" xmlns="http://www.w3.org/2000/svg">
<path fill-rule="evenodd" clip-rule="evenodd" d="M20.791 0C19.066 0 16.1835 0.6625 13.471 1.4C10.696 2.15 7.89853 3.0375 6.25353 3.575C5.56576 3.80213 4.95601 4.21866 4.49432 4.77675C4.03264 5.33484 3.73775 6.01185 3.64353 6.73C2.15353 17.9225 5.61103 26.2175 9.80603 31.705C11.585 34.0524 13.7061 36.1196 16.0985 37.8375C17.0635 38.52 17.9585 39.0425 18.7185 39.4C19.4185 39.73 20.171 40 20.791 40C21.411 40 22.161 39.73 22.8635 39.4C23.7797 38.9547 24.6563 38.4319 25.4835 37.8375C27.876 36.1196 29.9971 34.0525 31.776 31.705C35.971 26.2175 39.4285 17.9225 37.9385 6.73C37.8445 6.0115 37.5497 5.3341 37.088 4.77558C36.6263 4.21706 36.0165 3.80007 35.3285 3.5725C32.9405 2.78953 30.534 2.06432 28.111 1.3975C25.3985 0.665 22.516 0 20.791 0ZM26.156 12.865C26.3907 12.6303 26.7091 12.4984 27.041 12.4984C27.373 12.4984 27.6913 12.6303 27.926 12.865C28.1607 13.0997 28.2926 13.4181 28.2926 13.75C28.2926 14.0819 28.1607 14.4003 27.926 14.635L20.426 22.135C20.3099 22.2514 20.172 22.3438 20.0201 22.4068C19.8682 22.4698 19.7054 22.5022 19.541 22.5022C19.3766 22.5022 19.2138 22.4698 19.0619 22.4068C18.9101 22.3438 18.7721 22.2514 18.656 22.135L14.906 18.385C14.7898 18.2688 14.6976 18.1308 14.6347 17.979C14.5718 17.8271 14.5394 17.6644 14.5394 17.5C14.5394 17.3356 14.5718 17.1729 14.6347 17.021C14.6976 16.8692 14.7898 16.7312 14.906 16.615C15.0222 16.4988 15.1602 16.4066 15.3121 16.3437C15.4639 16.2808 15.6267 16.2484 15.791 16.2484C15.9554 16.2484 16.1181 16.2808 16.27 16.3437C16.4218 16.4066 16.5598 16.4988 16.676 16.615L19.541 19.4825L26.156 12.865Z" fill="white"/>
</svg>
