<svg width="41" height="30" viewBox="0 0 41 30" fill="none" xmlns="http://www.w3.org/2000/svg">
<path d="M17.9316 30C17.9316 30 15.4316 30 15.4316 27.5C15.4316 25 17.9316 17.5 27.9316 17.5C37.9316 17.5 40.4316 25 40.4316 27.5C40.4316 30 37.9316 30 37.9316 30H17.9316ZM27.9316 15C29.9208 15 31.8284 14.2098 33.2349 12.8033C34.6415 11.3968 35.4316 9.48912 35.4316 7.5C35.4316 5.51088 34.6415 3.60322 33.2349 2.1967C31.8284 0.790177 29.9208 0 27.9316 0C25.9425 0 24.0349 0.790177 22.6283 2.1967C21.2218 3.60322 20.4316 5.51088 20.4316 7.5C20.4316 9.48912 21.2218 11.3968 22.6283 12.8033C24.0349 14.2098 25.9425 15 27.9316 15ZM13.4716 30C13.101 29.2195 12.9162 28.3638 12.9316 27.5C12.9316 24.1125 14.6316 20.625 17.7716 18.2C16.2044 17.7171 14.5715 17.4809 12.9316 17.5C2.93164 17.5 0.431641 25 0.431641 27.5C0.431641 30 2.93164 30 2.93164 30H13.4716ZM11.6816 15C13.3392 15 14.929 14.3415 16.1011 13.1694C17.2732 11.9973 17.9316 10.4076 17.9316 8.75C17.9316 7.0924 17.2732 5.50269 16.1011 4.33058C14.929 3.15848 13.3392 2.5 11.6816 2.5C10.024 2.5 8.43433 3.15848 7.26222 4.33058C6.09012 5.50269 5.43164 7.0924 5.43164 8.75C5.43164 10.4076 6.09012 11.9973 7.26222 13.1694C8.43433 14.3415 10.024 15 11.6816 15Z" fill="white"/>
</svg>
