<svg width="60" height="60" viewBox="0 0 60 60" fill="none" xmlns="http://www.w3.org/2000/svg">
<g clip-path="url(#clip0_539_2266)">
<path fill-rule="evenodd" clip-rule="evenodd" d="M30.0609 3.88672C21.0814 3.88672 13.8027 11.1654 13.8027 20.1449C13.8115 25.8227 16.7767 31.0428 21.5504 33.973C22.3157 34.4433 23.1199 35.4688 23.2962 36.3492L23.7377 38.5591C23.9228 39.4833 24.742 40.1549 25.6837 40.1549H34.4381C35.3798 40.1549 36.1989 39.4833 36.384 38.5591L36.8255 36.3492C37.0018 35.4688 37.806 34.4433 38.5714 33.9743C43.345 31.0428 46.3102 25.8227 46.319 20.1449C46.319 11.1654 39.0404 3.88672 30.0609 3.88672Z" fill="#FDF0EA"/>
<path fill-rule="evenodd" clip-rule="evenodd" d="M23.6465 47.9463L36.4629 48.0113L35.3711 54.5621C35.1935 55.6264 34.2643 56.413 33.1862 56.413H26.9331C25.8551 56.413 24.9258 55.6264 24.7482 54.5621L23.6465 47.9463Z" fill="white"/>
<path fill-rule="evenodd" clip-rule="evenodd" d="M23.1823 45.1577H36.9391C37.2705 45.1577 37.5895 45.289 37.8233 45.5241C38.0584 45.758 38.1898 46.0769 38.1898 46.4083V47.6589C38.1898 48.3455 37.6257 48.9095 36.9391 48.9095H23.1823C22.8508 48.9095 22.5319 48.7782 22.2981 48.5431C22.0629 48.3092 21.9316 47.9903 21.9316 47.6589V46.4083C21.9316 45.7217 22.4957 45.1577 23.1823 45.1577Z" fill="#FDF0EA"/>
<path fill-rule="evenodd" clip-rule="evenodd" d="M30.0594 3.88672C26.9516 3.88672 24.4316 11.1654 24.4316 20.1449C24.4341 25.8227 25.4608 31.0428 27.1141 33.973C27.378 34.4433 27.6569 35.4688 27.7182 36.3492L27.8708 38.5591C27.9346 39.4833 28.2184 40.1549 28.5436 40.1549H31.5751C31.9003 40.1549 32.1842 39.4833 32.248 38.5591L32.4005 36.3492C32.4618 35.4688 32.7407 34.4433 33.0046 33.9743C34.6579 31.0428 35.6847 25.8227 35.6872 20.1449C35.6872 11.1654 33.1672 3.88672 30.0594 3.88672Z" fill="white"/>
<path fill-rule="evenodd" clip-rule="evenodd" d="M11.4726 38.6093C10.7922 38.0127 9.91431 37.6538 8.95508 37.6538C6.7965 37.6538 5.04688 39.4735 5.04688 41.7183C5.04688 43.9632 6.7965 45.7829 8.95508 45.7829H14.4265C16.1536 45.7829 17.5531 44.3271 17.5531 42.5312C17.5531 40.7353 16.1536 39.2796 14.4265 39.2796C13.7587 39.2796 13.1384 39.4972 12.6306 39.8687L11.4726 38.6093Z" fill="#FDF0EA"/>
<path fill-rule="evenodd" clip-rule="evenodd" d="M51.8243 30.1314C52.3008 29.7137 52.9161 29.4624 53.5877 29.4624C55.0985 29.4624 56.3228 30.7368 56.3228 32.3075C56.3228 33.8783 55.0985 35.1527 53.5877 35.1527H49.757C48.5489 35.1527 47.5684 34.1334 47.5684 32.8766C47.5684 31.6197 48.5489 30.6004 49.757 30.6004C50.2248 30.6004 50.6587 30.753 51.0139 31.0131L51.8243 30.1314Z" fill="white"/>
<path fill-rule="evenodd" clip-rule="evenodd" d="M22.7409 50.1212L23.5151 54.7685C23.7927 56.4319 25.2459 57.6637 26.933 57.6637H33.1861C34.8732 57.6637 36.3265 56.4319 36.6041 54.7685L37.3782 50.12C38.5438 49.9099 39.4393 48.8806 39.4393 47.6587V46.4081C39.4393 45.7453 39.1754 45.1087 38.7064 44.6397C38.2374 44.1707 37.6008 43.9069 36.938 43.9069H36.3127V40.8028C36.9655 40.3376 37.4433 39.6335 37.6084 38.8043L38.0511 36.5945C38.1674 36.0129 38.7189 35.3501 39.2242 35.0399C44.3655 31.8834 47.5596 26.2618 47.5683 20.1475V20.145C47.5683 10.4751 39.7294 2.63623 30.0596 2.63623C20.3897 2.63623 12.5508 10.4751 12.5508 20.145V20.1462C12.5521 20.714 12.5796 21.2756 12.6346 21.8333C12.7022 22.5199 13.3137 23.0227 14.0016 22.9551C14.6882 22.8876 15.1909 22.2761 15.1234 21.5882C15.0771 21.1117 15.0533 20.6302 15.0521 20.1437C15.0521 13.2553 19.6931 7.45239 26.0188 5.68776C24.343 8.69926 23.1811 14.0419 23.1811 20.145V20.1462C23.1849 26.0792 24.298 31.5257 26.0238 34.5884C26.2302 34.9524 26.4228 35.7528 26.4703 36.4356L26.6229 38.6455C26.6291 38.7343 26.6379 38.8206 26.6466 38.9044H25.6824C25.3335 38.9044 25.0308 38.6567 24.9633 38.3141L24.5218 36.1042C24.2854 34.9249 23.2287 33.5379 22.2032 32.9076C20.1334 31.637 18.4313 29.8986 17.2082 27.8701C16.8517 27.2785 16.0813 27.0885 15.491 27.4449C14.8995 27.8013 14.7094 28.5704 15.0658 29.162C16.4928 31.5282 18.4788 33.5567 20.895 35.0399C21.4002 35.3501 21.9518 36.0129 22.0681 36.5945L22.5108 38.8043C22.6759 39.6335 23.1536 40.3376 23.8065 40.8028V43.9069H23.1811C21.8092 43.9069 20.6799 45.0362 20.6799 46.4081V47.6587C20.6799 48.3216 20.9438 48.9581 21.4128 49.4271C21.7767 49.791 22.2407 50.0312 22.7409 50.1212ZM34.837 50.16H34.3955C33.7052 50.16 33.1449 49.5997 33.1449 48.9094C33.1449 48.219 33.7052 47.6587 34.3955 47.6587H36.938V46.5082C36.858 46.4881 36.7442 46.4081 36.938 46.4081H23.1811V47.5587C23.2612 47.5787 23.375 47.6587 23.1811 47.6587H30.3772C31.0663 47.6587 31.6279 48.219 31.6279 48.9094C31.6279 49.5997 31.0663 50.16 30.3772 50.16H25.2822L25.9825 54.3571C26.0588 54.8198 26.464 55.1625 26.933 55.1625H33.1861C33.6551 55.1625 34.0603 54.8198 34.1366 54.3571L34.837 50.16ZM28.809 43.9069V41.4056H26.3077V43.9069H28.809ZM33.8115 43.9069V41.4056H31.3102V43.9069H33.8115ZM30.0596 5.13748C30.386 5.13748 30.6774 5.33508 30.9713 5.61772C31.439 6.0667 31.863 6.73202 32.2519 7.55744C33.5926 10.3951 34.4368 14.9786 34.4368 20.145C34.4343 25.5677 33.4938 30.5602 31.9155 33.3591C31.5916 33.9356 31.2277 35.1837 31.1539 36.263L31 38.4729C30.9913 38.6105 30.9625 38.7668 30.9313 38.9044H29.1879C29.1566 38.7668 29.1279 38.6105 29.1191 38.4729L28.9653 36.263C28.8915 35.1837 28.5276 33.9356 28.2037 33.3591C26.6254 30.5602 25.6849 25.5677 25.6824 20.145C25.6824 14.9786 26.5266 10.3951 27.8672 7.55744C28.2562 6.73202 28.6801 6.0667 29.1479 5.61772C29.4418 5.33508 29.7332 5.13748 30.0596 5.13748ZM34.1004 5.68776C35.7762 8.69926 36.938 14.0419 36.938 20.145V20.1462C36.9355 26.0792 35.8212 31.5257 34.0953 34.5884C33.889 34.9524 33.6964 35.7528 33.6489 36.4356L33.4963 38.6455C33.49 38.7343 33.4813 38.8206 33.4725 38.9044H34.4368C34.7857 38.9044 35.0883 38.6567 35.1559 38.3141L35.5974 36.1042C35.8337 34.9249 36.8905 33.5379 37.9148 32.9076C42.322 30.2025 45.0583 25.3851 45.0671 20.1437C45.0671 13.2565 40.426 7.45239 34.1004 5.68776Z" fill="#EB662B"/>
<path fill-rule="evenodd" clip-rule="evenodd" d="M12.3949 37.764C12.3636 37.7302 12.3323 37.6989 12.2986 37.6689C11.3956 36.8785 10.2288 36.4033 8.9557 36.4033C6.12054 36.4033 3.79688 38.7695 3.79688 41.7184C3.79688 44.6674 6.12054 47.0336 8.9557 47.0336H14.4271C16.8308 47.0336 18.8043 45.0313 18.8043 42.5313C18.8043 40.0313 16.8308 38.0291 14.4271 38.0291C13.8894 38.0291 13.3741 38.1291 12.8976 38.3117L12.3949 37.764ZM10.6027 39.5098L11.7108 40.7154C12.141 41.1844 12.8551 41.2544 13.3691 40.8793C13.6693 40.6604 14.0332 40.5303 14.4271 40.5303C15.4777 40.5303 16.3031 41.4395 16.3031 42.5313C16.3031 43.6231 15.4777 44.5323 14.4271 44.5323H8.9557C7.47371 44.5323 6.29813 43.2592 6.29813 41.7184C6.29813 40.1777 7.47371 38.9045 8.9557 38.9045C9.57726 38.9045 10.1488 39.1309 10.599 39.5073L10.6027 39.5098Z" fill="#EB662B"/>
<path fill-rule="evenodd" clip-rule="evenodd" d="M51.0007 29.1907L50.7168 29.4883C50.4129 29.3983 50.0903 29.3495 49.7576 29.3495C47.8717 29.3495 46.3184 30.9153 46.3184 32.8763C46.3184 34.8373 47.8717 36.403 49.7576 36.403H53.5883C55.7756 36.403 57.574 34.5821 57.574 32.3073C57.574 30.0324 55.7756 28.2114 53.5883 28.2114C52.6028 28.2114 51.6986 28.5779 51.0007 29.1907ZM52.6966 31.0316C52.9429 30.8328 53.2518 30.7127 53.5883 30.7127C54.4212 30.7127 55.0728 31.4393 55.0728 32.3073C55.0728 33.1752 54.4212 33.9018 53.5883 33.9018H49.7576C49.2261 33.9018 48.8196 33.4291 48.8196 32.8763C48.8196 32.3235 49.2261 31.8508 49.7576 31.8508C49.9514 31.8508 50.1303 31.9145 50.2766 32.0221C50.7906 32.3985 51.5047 32.3273 51.9362 31.8595L52.6928 31.0341L52.6966 31.0316Z" fill="#EB662B"/>
<path d="M14.595 26.3587C15.286 26.3587 15.8461 25.7985 15.8461 25.1075C15.8461 24.4165 15.286 23.8564 14.595 23.8564C13.904 23.8564 13.3438 24.4165 13.3438 25.1075C13.3438 25.7985 13.904 26.3587 14.595 26.3587Z" fill="#EB662B"/>
</g>
<defs>
<clipPath id="clip0_539_2266">
<rect width="60" height="60" fill="white"/>
</clipPath>
</defs>
</svg>
