<svg width="60" height="60" viewBox="0 0 60 60" fill="none" xmlns="http://www.w3.org/2000/svg">
<g clip-path="url(#clip0_539_2282)">
<path fill-rule="evenodd" clip-rule="evenodd" d="M28.4153 55.2118C28.758 55.7575 29.358 56.0901 30.0032 56.0901C30.6485 56.0901 31.2485 55.7575 31.5912 55.2118C36.6662 47.1201 52.3603 22.0958 55.9625 16.3521C56.402 15.6506 56.3298 14.7436 55.7837 14.12C53.7181 11.7625 48.7631 6.10437 47.093 4.19741C46.7367 3.79245 46.2225 3.55859 45.6825 3.55859C41.0557 3.55859 18.9507 3.55859 14.3239 3.55859C13.7839 3.55859 13.2697 3.79245 12.9134 4.19741C11.2433 6.10437 6.28831 11.7625 4.22278 14.12C3.67671 14.7436 3.60447 15.6506 4.04403 16.3521C7.64613 22.0958 23.3402 47.1201 28.4153 55.2118Z" fill="#FDF0EA"/>
<path fill-rule="evenodd" clip-rule="evenodd" d="M3.83789 15.1872H56.1915C56.1152 14.9371 55.9865 14.7007 55.8063 14.4945C53.7403 12.1371 48.7815 6.4779 47.1108 4.57069C46.7556 4.16424 46.2403 3.93164 45.7001 3.93164C41.0727 3.93164 18.9567 3.93164 14.3294 3.93164C13.7891 3.93164 13.2739 4.16424 12.9187 4.57069C11.2478 6.4779 6.28911 12.1371 4.22308 14.4945C4.04299 14.7007 3.91417 14.9371 3.83789 15.1872Z" fill="white"/>
<path fill-rule="evenodd" clip-rule="evenodd" d="M22.5122 15.1872L30.016 3.93164H14.3306C14.1518 3.93164 13.9755 3.95665 13.8066 4.00668L22.5122 15.1872ZM30.016 3.93164L37.5197 15.1872L46.2252 4.00668C46.0565 3.95665 45.8801 3.93164 45.7013 3.93164H30.016Z" fill="#FDF0EA"/>
<path fill-rule="evenodd" clip-rule="evenodd" d="M37.5192 15.1872H22.5117L30.0154 3.93164L37.5192 15.1872Z" fill="white"/>
<path fill-rule="evenodd" clip-rule="evenodd" d="M30.0154 56.4731L22.5117 15.1875H37.5192L30.0154 56.4731Z" fill="white"/>
<path fill-rule="evenodd" clip-rule="evenodd" d="M15.0052 48.9917L16.486 51.2637L18.7578 52.7443L16.486 54.2238L15.0052 56.4957L13.5258 54.2238L11.2539 52.7443L13.5258 51.2637L15.0052 48.9917Z" fill="#FDF0EA"/>
<path fill-rule="evenodd" clip-rule="evenodd" d="M7.50523 33.9917L8.986 36.2637L11.2579 37.7443L8.986 39.2238L7.50523 41.4957L6.02576 39.2238L3.75391 37.7443L6.02576 36.2637L7.50523 33.9917Z" fill="#FDF0EA"/>
<path fill-rule="evenodd" clip-rule="evenodd" d="M51.2552 40.2412L52.736 42.5131L55.0079 43.9938L52.736 45.4733L51.2552 47.7452L49.7757 45.4733L47.5039 43.9938L49.7757 42.5131L51.2552 40.2412Z" fill="#FDF0EA"/>
<path d="M23.1335 48.1443C23.8242 48.1443 24.3841 47.5844 24.3841 46.8937C24.3841 46.203 23.8242 45.6431 23.1335 45.6431C22.4427 45.6431 21.8828 46.203 21.8828 46.8937C21.8828 47.5844 22.4427 48.1443 23.1335 48.1443Z" fill="#EB662B"/>
<path fill-rule="evenodd" clip-rule="evenodd" d="M5.33937 16.438H21.4762L28.5134 53.3802L26.3173 49.8797C25.951 49.2945 25.178 49.1182 24.594 49.4845C24.0086 49.851 23.8324 50.6238 24.1988 51.2079C24.1988 51.2079 26.5525 54.961 27.3666 56.2591C27.9382 57.1709 28.9386 57.7236 30.0155 57.7236C31.0922 57.7236 32.0927 57.1709 32.6642 56.2591L57.0452 17.3922C57.7793 16.2229 57.658 14.7096 56.7475 13.6704C54.6815 11.3129 49.724 5.65386 48.0532 3.74667C47.4592 3.07007 46.6025 2.68115 45.7008 2.68115H14.3302C13.4284 2.68115 12.5717 3.07007 11.9777 3.74667C10.3069 5.65386 5.34938 11.3129 3.28334 13.6704C2.37288 14.7096 2.25158 16.2229 2.98569 17.3922L20.0629 44.6159C20.4306 45.2011 21.2023 45.3774 21.7876 45.0111C22.3716 44.6446 22.5492 43.8718 22.1827 43.2877L5.33937 16.438ZM53.656 13.9368L46.4662 5.73142L40.078 13.9368H48.7748C49.4652 13.9368 50.0255 14.4971 50.0255 15.1875C50.0255 15.8777 49.4652 16.438 48.7748 16.438H38.5547L31.5174 53.3802L54.6916 16.438H52.5266C51.8364 16.438 51.2761 15.8777 51.2761 15.1875C51.2761 14.4971 51.8364 13.9368 52.5266 13.9368H53.656ZM36.0084 16.438H24.0224L30.0155 47.8987L36.0084 16.438ZM6.37488 13.9368H19.9529L13.5647 5.73142L6.37488 13.9368ZM24.8491 13.9368H35.1817L30.0155 6.18666L24.8491 13.9368ZM43.7236 5.1824H32.3528L37.598 13.05L43.7236 5.1824ZM27.678 5.1824H16.3074L22.4329 13.05L27.678 5.1824Z" fill="#EB662B"/>
<path fill-rule="evenodd" clip-rule="evenodd" d="M16.0527 48.3086C15.8224 47.9545 15.4288 47.7412 15.005 47.7412C14.5825 47.7412 14.189 47.9545 13.9573 48.3086L12.6213 50.3593L10.5706 51.6967C10.2165 51.9269 10.002 52.3205 10.002 52.7444C10.002 53.1669 10.2165 53.5604 10.5706 53.7921L12.6213 55.1281L13.9573 57.1789C14.189 57.5329 14.5825 57.7474 15.005 57.7474C15.4288 57.7474 15.8224 57.5329 16.0527 57.1789L17.3901 55.1281L19.4408 53.7921C19.7949 53.5604 20.008 53.1669 20.008 52.7444C20.008 52.3205 19.7949 51.9269 19.4408 51.6967L17.3901 50.3593L16.0527 48.3086ZM15.005 51.2819L15.4381 51.9467C15.5329 52.0915 15.6579 52.2165 15.8026 52.3113L16.4674 52.7444L15.8026 53.176C15.6579 53.2708 15.5329 53.3959 15.4381 53.542L15.005 54.2054L14.5732 53.542C14.4786 53.3959 14.3535 53.2708 14.2074 53.176L13.544 52.7444L14.2074 52.3113C14.3535 52.2165 14.4786 52.0915 14.5732 51.9467L15.005 51.2819Z" fill="#EB662B"/>
<path fill-rule="evenodd" clip-rule="evenodd" d="M8.55275 33.3086C8.32241 32.9545 7.92886 32.7412 7.50502 32.7412C7.08251 32.7412 6.68895 32.9545 6.45729 33.3086L5.12129 35.3593L3.07057 36.6967C2.7165 36.9269 2.50195 37.3205 2.50195 37.7444C2.50195 38.1669 2.7165 38.5604 3.07057 38.7921L5.12129 40.1281L6.45729 42.1789C6.68895 42.5329 7.08251 42.7474 7.50502 42.7474C7.92886 42.7474 8.32241 42.5329 8.55275 42.1789L9.89006 40.1281L11.9408 38.7921C12.2949 38.5604 12.508 38.1669 12.508 37.7444C12.508 37.3205 12.2949 36.9269 11.9408 36.6967L9.89006 35.3593L8.55275 33.3086ZM7.50502 36.2819L7.93806 36.9467C8.03284 37.0915 8.15788 37.2165 8.30267 37.3113L8.96737 37.7444L8.30267 38.176C8.15788 38.2708 8.03284 38.3959 7.93806 38.542L7.50502 39.2054L7.07329 38.542C6.97852 38.3959 6.85348 38.2708 6.70738 38.176L6.04398 37.7444L6.70738 37.3113C6.85348 37.2165 6.97852 37.0915 7.07329 36.9467L7.50502 36.2819Z" fill="#EB662B"/>
<path fill-rule="evenodd" clip-rule="evenodd" d="M52.3028 39.5581C52.0724 39.204 51.6788 38.9907 51.255 38.9907C50.8325 38.9907 50.439 39.204 50.2073 39.5581L48.8713 41.6088L46.8206 42.946C46.4665 43.1764 46.252 43.57 46.252 43.9939C46.252 44.4164 46.4665 44.8099 46.8206 45.0416L48.8713 46.3776L50.2073 48.4282C50.439 48.7824 50.8325 48.9969 51.255 48.9969C51.6788 48.9969 52.0724 48.7824 52.3028 48.4282L53.6401 46.3776L55.6908 45.0416C56.0449 44.8099 56.2582 44.4164 56.2582 43.9939C56.2582 43.57 56.0449 43.1764 55.6908 42.946L53.6401 41.6088L52.3028 39.5581ZM51.255 42.5314L51.6881 43.1961C51.7829 43.341 51.9079 43.466 52.0528 43.5608L52.7174 43.9939L52.0528 44.4255C51.9079 44.5203 51.7829 44.6454 51.6881 44.7915L51.255 45.4549L50.8234 44.7915C50.7286 44.6454 50.6035 44.5203 50.4574 44.4255L49.794 43.9939L50.4574 43.5608C50.6035 43.466 50.7286 43.341 50.8234 43.1961L51.255 42.5314Z" fill="#EB662B"/>
</g>
<defs>
<clipPath id="clip0_539_2282">
<rect width="60" height="60" fill="white"/>
</clipPath>
</defs>
</svg>
